<svg xmlns="http://www.w3.org/2000/svg" width="164.266" height="34.731" viewBox="0 0 164.266 34.731"><defs><style>.a{fill:#3d9218;}</style></defs><g transform="translate(-76.191 -26.656)"><path class="a" d="M1067.031,307.666a56.162,56.162,0,0,1-10.414-7.421c-4.783-4.524-7.208-9.388-7.208-14.456,0-6.978,4.856-12.043,11.546-12.043a13.141,13.141,0,0,1,5.612,1.187,11.455,11.455,0,0,0-3.144,3.9,9.016,9.016,0,0,0-2.468-.331c-4.06,0-6.788,2.927-6.788,7.285,0,3.708,1.924,7.409,5.719,11a47.221,47.221,0,0,0,8.471,6.14l.064.038.064-.038a47.234,47.234,0,0,0,8.471-6.14c3.8-3.59,5.72-7.29,5.72-11,0-4.357-2.728-7.285-6.788-7.285-4.645,0-7.53,2.958-7.53,7.719v.562h4.862v4.758h-4.862V300.5c-.682-.393-3.2-1.9-4.758-3.04V286.223c0-7.347,5.053-12.477,12.288-12.477,6.69,0,11.547,5.065,11.547,12.043,0,5.068-2.425,9.932-7.209,14.456a56.17,56.17,0,0,1-10.415,7.421l-1.39.811Z" transform="translate(-973.217 -247.09)"/><g transform="translate(-885.532 -421.164)"><path class="a" d="M1012.318,475.121a8.9,8.9,0,0,1-2.593-6.457q-.032-.87-.032-2.834,0-2,.032-2.9a8.9,8.9,0,0,1,2.609-6.424,9.619,9.619,0,0,1,6.86-2.3,11.8,11.8,0,0,1,4.992.982,7.949,7.949,0,0,1,3.3,2.689,6.991,6.991,0,0,1,1.24,3.833v.065a.545.545,0,0,1-.21.434.7.7,0,0,1-.466.177h-3.124a.832.832,0,0,1-.58-.177,1.354,1.354,0,0,1-.322-.628,4.554,4.554,0,0,0-1.675-2.818,5.462,5.462,0,0,0-3.156-.822q-4.606,0-4.8,5.153-.033.87-.033,2.673t.033,2.738q.193,5.153,4.8,5.152a5.476,5.476,0,0,0,3.14-.821,4.52,4.52,0,0,0,1.691-2.818,1.358,1.358,0,0,1,.322-.628.836.836,0,0,1,.58-.178h3.124a.712.712,0,0,1,.5.194.541.541,0,0,1,.177.483,6.985,6.985,0,0,1-1.24,3.832,7.933,7.933,0,0,1-3.3,2.69,11.8,11.8,0,0,1-4.992.982Q1014.75,477.392,1012.318,475.121Z" transform="translate(0 -0.302)"/><path class="a" d="M1040.561,477.27a7.481,7.481,0,0,1-2.222-5.346l-.033-1.417.033-1.418a7.434,7.434,0,0,1,2.254-5.33,9.645,9.645,0,0,1,11.626,0,7.44,7.44,0,0,1,2.255,5.33q.032.386.032,1.418t-.032,1.417a7.487,7.487,0,0,1-2.223,5.346,9.806,9.806,0,0,1-11.69,0Zm8.486-2.384a4.9,4.9,0,0,0,.982-3.124q.032-.321.033-1.255t-.033-1.257a4.912,4.912,0,0,0-1-3.14,3.269,3.269,0,0,0-2.608-1.079,3.307,3.307,0,0,0-2.641,1.079,4.913,4.913,0,0,0-1,3.14l-.032,1.257.032,1.255a4.841,4.841,0,0,0,1,3.124,3.329,3.329,0,0,0,2.641,1.063A3.279,3.279,0,0,0,1049.047,474.886Z" transform="translate(-6.81 -2.112)"/><path class="a" d="M1064.482,478.655a.741.741,0,0,1-.226-.548v-15.2a.73.73,0,0,1,.226-.564.775.775,0,0,1,.547-.21h2.673a.721.721,0,0,1,.773.773v1.32a6.56,6.56,0,0,1,5.379-2.415,6.009,6.009,0,0,1,4.7,1.932,7.653,7.653,0,0,1,1.739,5.314v9.05a.776.776,0,0,1-.209.548.734.734,0,0,1-.564.225h-2.9a.77.77,0,0,1-.773-.773v-8.856a4.278,4.278,0,0,0-.917-2.915,3.309,3.309,0,0,0-2.625-1.047,3.451,3.451,0,0,0-2.641,1.064,4.06,4.06,0,0,0-1,2.9v8.856a.774.774,0,0,1-.21.548.733.733,0,0,1-.563.225h-2.867A.745.745,0,0,1,1064.482,478.655Z" transform="translate(-12.985 -2.112)"/><path class="a" d="M1091.912,476.542a.741.741,0,0,1-.226-.548V463.467h-2.609a.77.77,0,0,1-.773-.773v-1.9a.77.77,0,0,1,.773-.773h2.609v-1.288a5.609,5.609,0,0,1,1.577-4.364,6.9,6.9,0,0,1,4.767-1.433h6.666a.721.721,0,0,1,.773.772v1.9a.77.77,0,0,1-.773.773h-6.505a2.207,2.207,0,0,0-1.771.612,2.906,2.906,0,0,0-.516,1.9v1.127h8.792a.722.722,0,0,1,.773.773v15.2a.774.774,0,0,1-.21.548.733.733,0,0,1-.564.226h-2.672a.77.77,0,0,1-.773-.773V463.467h-5.346v12.527a.77.77,0,0,1-.21.548.731.731,0,0,1-.563.226h-2.673A.743.743,0,0,1,1091.912,476.542Z" transform="translate(-18.709)"/><path class="a" d="M1117.413,475.314a9.055,9.055,0,0,1-1.9-5.555l-.032-1.062.032-1.064a8.893,8.893,0,0,1,1.884-5.523,6.885,6.885,0,0,1,9.935.017v-7.15a.73.73,0,0,1,.225-.564.776.776,0,0,1,.547-.21h2.8a.722.722,0,0,1,.773.773V476.3a.774.774,0,0,1-.21.548.733.733,0,0,1-.563.226H1128.3a.769.769,0,0,1-.773-.773V475.1a6.953,6.953,0,0,1-10.113.209Zm8.937-2.576a5.2,5.2,0,0,0,.982-2.915q.032-.386.032-1.223,0-.87-.032-1.257a4.447,4.447,0,0,0-1-2.738,3.316,3.316,0,0,0-2.705-1.127q-3.447,0-3.672,4.251l-.032.967.032.965q.226,4.251,3.672,4.251A3.184,3.184,0,0,0,1126.35,472.737Z" transform="translate(-25.176 -0.302)"/><path class="a" d="M1143.659,477.141a8.231,8.231,0,0,1-2.238-5.862l-.032-.8a9.073,9.073,0,0,1,2.109-6.344,8.608,8.608,0,0,1,11.755,0,8.92,8.92,0,0,1,2.078,6.184v.676a.747.747,0,0,1-.225.547.784.784,0,0,1-.58.226h-10.693v.258a4.994,4.994,0,0,0,.982,2.979,3.032,3.032,0,0,0,2.528,1.176,3.635,3.635,0,0,0,3-1.481,1.747,1.747,0,0,1,.45-.435,1.331,1.331,0,0,1,.548-.081h2.834a.8.8,0,0,1,.5.162.537.537,0,0,1,.209.451,3,3,0,0,1-.918,1.819,7.594,7.594,0,0,1-2.624,1.82,9.513,9.513,0,0,1-3.962.773A7.827,7.827,0,0,1,1143.659,477.141Zm9.227-8.116v-.065a4.613,4.613,0,0,0-.95-3.043,3.194,3.194,0,0,0-2.592-1.143,3.148,3.148,0,0,0-2.576,1.143,4.661,4.661,0,0,0-.934,3.043v.065Z" transform="translate(-31.342 -2.112)"/></g></g></svg>