<svg xmlns="http://www.w3.org/2000/svg" xmlns:xlink="http://www.w3.org/1999/xlink" width="47.323" height="47.323" viewBox="0 0 47.323 47.323"><defs><style>.a{fill:url(#a);}.b{fill:url(#b);}.c{fill:url(#c);}.d{fill:url(#d);}.e{fill:#fff;}</style><linearGradient id="a" x1="0.332" y1="0.141" x2="0.585" y2="0.682" gradientUnits="objectBoundingBox"><stop offset="0" stop-color="#00c3ff"/><stop offset="1" stop-color="#00b0ed"/></linearGradient><linearGradient id="b" x1="0.738" y1="0.628" x2="-0.899" y2="-0.25" gradientUnits="objectBoundingBox"><stop offset="0" stop-color="#00b0ed" stop-opacity="0"/><stop offset="1" stop-color="#00a2ce"/></linearGradient><linearGradient id="c" x1="0.5" y1="0.27" x2="0.5" y2="0.926" xlink:href="#b"/><linearGradient id="d" x1="0.946" y1="0.922" x2="0.342" y2="0.273" xlink:href="#b"/></defs><g transform="translate(0 0.001)"><path class="a" d="M38.858,46.512a142.935,142.935,0,0,1-30.394,0A8.617,8.617,0,0,1,.81,38.858a142.932,142.932,0,0,1,0-30.394A8.617,8.617,0,0,1,8.464.81a142.932,142.932,0,0,1,30.394,0,8.617,8.617,0,0,1,7.654,7.654,142.933,142.933,0,0,1,0,30.394,8.616,8.616,0,0,1-7.654,7.654Zm0,0" transform="translate(0 0)"/><path class="b" d="M70.108,36.345a7.646,7.646,0,0,0-6.792-6.792,126.883,126.883,0,0,0-26.971,0,7.647,7.647,0,0,0-6.792,6.792,126.879,126.879,0,0,0,0,26.97,7.646,7.646,0,0,0,6.792,6.792,126.833,126.833,0,0,0,26.97,0,7.646,7.646,0,0,0,6.792-6.792,126.832,126.832,0,0,0,0-26.97Zm0,0" transform="translate(-26.169 -26.17)"/><path class="c" d="M7.672,409.8q.049.491.1.981a8.617,8.617,0,0,0,7.654,7.654,142.933,142.933,0,0,0,30.394,0,8.616,8.616,0,0,0,7.654-7.654q.053-.491.1-.981Zm0,0" transform="translate(-6.963 -371.928)"/><path class="d" d="M135.639,136.984l-9.823-9.822a11.722,11.722,0,0,1-2.8,1.172,8.017,8.017,0,0,1-.987.2,6.1,6.1,0,0,0-10.466,4.26c0,.122,0,.242.011.362a5.883,5.883,0,0,0,.111.858,16.709,16.709,0,0,1-10.336-4.133h0l-2.056-2.056s-2.412,4.209,1.134,7.4a6.77,6.77,0,0,0,.514.514l.045.049a5.976,5.976,0,0,1-2.675-.743,5.919,5.919,0,0,0,1.981,4.467l1.731,1.746a3.368,3.368,0,0,1-1.516-.144,5.83,5.83,0,0,0,1.746,2.744l2.425,2.437a12.553,12.553,0,0,1-7.353,1.637l14.709,14.372a143.1,143.1,0,0,0,15.154-.81,8.617,8.617,0,0,0,7.655-7.654,143.153,143.153,0,0,0,.8-16.86Zm0,0" transform="translate(-88.326 -114.986)"/><path class="e" d="M126.65,129.53a11.034,11.034,0,0,1-3.147.874l-.013-.074a5.855,5.855,0,0,0,2.321-3.169,11.722,11.722,0,0,1-2.8,1.172,8.084,8.084,0,0,1-.987.2,6.1,6.1,0,0,0-10.466,4.26c0,.121,0,.242.011.361a5.883,5.883,0,0,0,.111.858,17.049,17.049,0,0,1-12.393-6.189s-2.716,4.738,1.85,7.975a6.361,6.361,0,0,1-2.832-.751s-.289,4.566,4.97,6.01a5.771,5.771,0,0,1-2.774.058,5.883,5.883,0,0,0,5.548,4.219,12.154,12.154,0,0,1-8.73,2.6,17.238,17.238,0,0,0,26.44-14.572q0-.178,0-.356c0-.07,0-.14,0-.212,0-.049,0-.1,0-.148A10.785,10.785,0,0,0,126.65,129.53Zm0,0" transform="translate(-88.322 -114.985)"/></g></svg>