<svg xmlns="http://www.w3.org/2000/svg" xmlns:xlink="http://www.w3.org/1999/xlink" width="65.623" height="65.624" viewBox="0 0 65.623 65.624"><defs><style>.a{fill:#ff0e0e;}.b{fill:#fff;}.c{fill:#e8e0e0;}.d{filter:url(#a);}</style><filter id="a" x="0" y="0" width="65.623" height="65.624" filterUnits="userSpaceOnUse"><feOffset dy="3" input="SourceAlpha"/><feGaussianBlur stdDeviation="3" result="b"/><feFlood flood-opacity="0.161"/><feComposite operator="in" in2="b"/><feComposite in="SourceGraphic"/></filter></defs><g transform="translate(9 2)"><g class="d" transform="matrix(1, 0, 0, 1, -9, -2)"><path class="a" d="M569.808,182.156a9.784,9.784,0,0,1-9.781,9.783H531.968a9.783,9.783,0,0,1-9.783-9.783V154.1a9.781,9.781,0,0,1,9.783-9.782h28.059a9.782,9.782,0,0,1,9.781,9.782Z" transform="translate(-513.18 -138.32)"/></g><g transform="translate(1 5.2)"><g transform="translate(15.652 12.585)"><path class="b" d="M596.894,214.252l19.745,10.306-19.745,10.3Z" transform="translate(-596.894 -214.252)"/><path class="c" d="M596.894,214.521l17.172,11.488,2.573-1.338-18.22-9.508-1.525-.662Z" transform="translate(-596.894 -214.365)"/></g></g></g></svg>