<svg xmlns="http://www.w3.org/2000/svg" xmlns:xlink="http://www.w3.org/1999/xlink" width="44.905" height="44.903" viewBox="0 0 44.905 44.903"><defs><style>.a{fill:url(#a);}.b{fill:#fff;}</style><radialGradient id="a" cx="0.508" cy="1.225" r="1.347" gradientTransform="translate(0)" gradientUnits="objectBoundingBox"><stop offset="0" stop-color="#3b5998"/><stop offset="0.301" stop-color="#3b5998"/><stop offset="1" stop-color="#5f83cf"/></radialGradient></defs><path class="a" d="M356.943,382.676a9.222,9.222,0,0,1-9.223,9.224H321.262a9.223,9.223,0,0,1-9.224-9.224V356.22A9.223,9.223,0,0,1,321.262,347H347.72a9.223,9.223,0,0,1,9.223,9.223Z" transform="translate(-312.038 -346.997)"/><path class="b" d="M399.7,376.357h4.142v-6.511h-6.208a8.415,8.415,0,0,0-6.391,3.137s-1.695,1.6-1.72,6.276h0v4.883h-6.136v6.914h6.136v17.86H396.6v-17.86h6.088l.848-6.914H396.6V379.26h0A2.839,2.839,0,0,1,399.7,376.357Z" transform="translate(-365.173 -364.014)"/></svg>