<svg xmlns="http://www.w3.org/2000/svg" xmlns:xlink="http://www.w3.org/1999/xlink" width="66.5" height="72.5" viewBox="0 0 66.5 72.5"><defs><style>.a{fill:#fff;stroke:rgba(255,255,255,0.12);stroke-width:0.5px;}.b{fill:none;}.c{fill:#3d9218;}.d{filter:url(#c);}.e{filter:url(#a);}</style><filter id="a" x="0" y="0" width="66.5" height="66.5" filterUnits="userSpaceOnUse"><feOffset input="SourceAlpha"/><feGaussianBlur stdDeviation="3" result="b"/><feFlood flood-opacity="0.122"/><feComposite operator="in" in2="b"/><feComposite in="SourceGraphic"/></filter><filter id="c" x="0" y="6" width="66.5" height="66.5" filterUnits="userSpaceOnUse"><feOffset dy="6" input="SourceAlpha"/><feGaussianBlur stdDeviation="3" result="d"/><feFlood flood-opacity="0.239"/><feComposite operator="in" in2="d"/><feComposite in="SourceGraphic"/></filter></defs><g transform="translate(-179.75 5.25)"><g transform="translate(189.268 4.268)"><g class="e" transform="matrix(1, 0, 0, 1, -9.52, -9.52)"><circle class="a" cx="24" cy="24" r="24" transform="translate(9.25 9.25)"/></g><g class="d" transform="matrix(1, 0, 0, 1, -9.52, -9.52)"><circle class="a" cx="24" cy="24" r="24" transform="translate(9.25 9.25)"/></g></g><g transform="translate(201 16)"><rect class="b" width="24" height="24"/></g><g transform="translate(206.473 13.052)"><rect class="b" width="14" height="30" transform="translate(0.527 -0.052)"/><path class="c" d="M6.5,8.991A2.5,2.5,0,1,0,4,6.5a2.5,2.5,0,0,0,2.5,2.5Zm0,2.5a2.5,2.5,0,1,0,2.5,2.5,2.5,2.5,0,0,0-2.5-2.5Zm0,7.487a2.5,2.5,0,1,0,2.5,2.5,2.5,2.5,0,0,0-2.5-2.5Z" transform="translate(1.032 0.965)"/></g></g></svg>