<svg xmlns="http://www.w3.org/2000/svg" xmlns:xlink="http://www.w3.org/1999/xlink" width="46" height="46" viewBox="0 0 46 46"><defs><style>.a{fill:url(#a);}.b{fill:url(#b);}.c{fill:url(#c);}</style><radialGradient id="a" cx="0.466" cy="1.201" r="1.286" gradientTransform="translate(0)" gradientUnits="objectBoundingBox"><stop offset="0.26" stop-color="#36b649"/><stop offset="0.76" stop-color="#57c965"/></radialGradient><radialGradient id="b" cx="0.302" cy="1.028" r="1.07" gradientTransform="translate(-0.005) scale(1.009 1)" gradientUnits="objectBoundingBox"><stop offset="0.219" stop-color="#e7e7e7"/><stop offset="0.883" stop-color="#fcfcfc"/></radialGradient><radialGradient id="c" cx="0.132" cy="1.162" r="1.032" gradientTransform="translate(0.033) scale(0.933 1)" gradientUnits="objectBoundingBox"><stop offset="0.219" stop-color="#e7e7e7"/><stop offset="0.883" stop-color="#fff"/></radialGradient></defs><g transform="translate(-1043.306 -423.135)"><path class="a" d="M147.893,180.87a9.447,9.447,0,0,1-9.448,9.448h-27.1a9.449,9.449,0,0,1-9.449-9.448v-27.1a9.449,9.449,0,0,1,9.449-9.449h27.1a9.448,9.448,0,0,1,9.448,9.449Z" transform="translate(941.413 278.817)"/><g transform="translate(1052.197 430.601)"><path class="b" d="M141.991,167.421a15.2,15.2,0,0,0-13.07,22.963L127,198.112l7.618-2.193a15.2,15.2,0,1,0,7.369-28.5Zm.172,27.879a12.556,12.556,0,0,1-7.15-2.224l-4.338,1.25,1.109-4.469a12.619,12.619,0,1,1,10.379,5.443Z" transform="translate(-126.79 -167.421)"/><path class="c" d="M162.383,207.623l.528-.608c.3-.344.74-.675.763-1.169a3.455,3.455,0,0,0-.315-1.379c-.108-.277-.219-.553-.325-.832a5.544,5.544,0,0,0-.719-1.51,1.348,1.348,0,0,0-1.538-.239s-2.983,1.434-2.064,4.3a13.5,13.5,0,0,0,10.728,9.751s3.212.46,4.072-1.492a3.439,3.439,0,0,0,.281-1.47,1.225,1.225,0,0,0-.71-.95c-.472-.27-.891-.522-1.428-.788a1.547,1.547,0,0,0-2.48.333c-.348.368-.7.732-1.054,1.1C168.119,212.669,163.587,211,162.383,207.623Z" transform="translate(-151.024 -193.625)"/></g></g></svg>