<svg xmlns="http://www.w3.org/2000/svg" width="192.695" height="181.128" viewBox="0 0 192.695 181.128"><defs><style>.a{fill:#f2bf91;}.b{fill:#67a2bf;}.c{fill:#eceded;}.d,.k{fill:#fff;}.e{fill:#76ba36;}.f{fill:#ff473b;}.g{fill:#ffc999;}.h{fill:#3d9218;}.i{fill:#fff88c;}.j{fill:#e0b186;}.k{opacity:0.2;}</style></defs><g transform="translate(-63.424 -118.888)"><path class="a" d="M234.856,357.979l-18.242,17.8L203.2,411.663l21.694-1.253s4.955-.358,7.1-3.756S234.856,357.979,234.856,357.979Z" transform="translate(-108.853 -191.786)"/><rect class="b" width="110.165" height="139.858" rx="4" transform="translate(118.849 118.888)"/><rect class="c" width="96.494" height="127.576" transform="translate(127.26 124.017)"/><path class="a" d="M188.025,474.513l-14.276,34.574h24.5l10.858-29.55-20.857-5.631" transform="translate(-91.205 -261.25)"/><rect class="d" width="95.858" height="125.55" transform="translate(126.003 126.042)"/><rect class="c" width="41.85" height="10.257" transform="translate(153.007 118.888)"/><rect class="c" width="64.742" height="14.546" transform="translate(149.372 147.266)"/><rect class="c" width="14.546" height="14.546" transform="translate(131.607 147.266)"/><rect class="c" width="64.742" height="14.546" transform="translate(149.372 165.15)"/><rect class="c" width="14.546" height="14.546" transform="translate(131.607 165.15)"/><rect class="c" width="64.742" height="14.546" transform="translate(149.372 183.035)"/><rect class="c" width="14.546" height="14.546" transform="translate(131.607 183.035)"/><rect class="c" width="64.742" height="14.547" transform="translate(149.372 200.919)"/><rect class="c" width="14.546" height="14.547" transform="translate(131.607 200.919)"/><rect class="c" width="64.742" height="14.546" transform="translate(149.372 218.805)"/><rect class="c" width="14.546" height="14.546" transform="translate(131.607 218.805)"/><path class="e" d="M311.655,319.844l-1.2-1.2-5.217,5.217-3.121-3.121-1.2,1.2,3.121,3.121-.01.01,1.2,1.2.009-.009.009.009,1.2-1.2-.009-.01Z" transform="translate(-167.407 -168.216)"/><path class="e" d="M311.655,366.55l-1.2-1.2-5.217,5.217-3.121-3.121-1.2,1.2,3.121,3.121-.01.01,1.2,1.2.009-.009.009.009,1.2-1.2-.009-.01Z" transform="translate(-167.407 -196.203)"/><path class="e" d="M311.655,409.835l-1.2-1.2-5.217,5.217-3.121-3.121-1.2,1.2,3.121,3.12-.01.009,1.2,1.2.009-.009.009.009,1.2-1.2-.009-.009Z" transform="translate(-167.407 -222.14)"/><path class="f" d="M311.976,458.475l-1.405-1.405,2.613-2.613-1.2-1.2-2.613,2.613-2.613-2.613-1.2,1.2,2.613,2.613-1.405,1.405-1.2,1.2-.009.009,1.2,1.2.009-.009.009.009,1.2-1.2-.009-.009,1.405-1.405,1.4,1.405-.009.009,1.2,1.2.009-.009.009.009,1.2-1.2-.009-.009Z" transform="translate(-170.188 -248.878)"/><path class="f" d="M311.976,503.1l-1.405-1.4,2.613-2.613-1.2-1.2-2.613,2.613-2.613-2.613-1.2,1.2,2.613,2.613-1.405,1.4-1.2,1.2-.009.009,1.2,1.2.009-.009.009.009,1.2-1.2-.009-.009,1.405-1.405,1.4,1.405-.009.009,1.2,1.2.009-.009.009.009,1.2-1.2-.009-.009Z" transform="translate(-170.188 -275.618)"/><path class="g" d="M228.251,411.981s1.55-2.745,7.154-14.072,0-13.536,0-13.536L220.293,402.32l-16.176,23.77S228.251,431.056,228.251,411.981Z" transform="translate(-109.402 -207.601)"/><path class="g" d="M196.937,488.461H185.92l-12.171,29.348h11.017Z" transform="translate(-91.205 -269.972)"/><path class="h" d="M161.276,563.674H126.043l24.767-57.645h29.712Z" transform="translate(-62.619 -280.499)"/><path class="i" d="M221.81,495.844h-26.35l-1.452,4.082h26.35Z" transform="translate(-103.345 -274.396)"/><path class="g" d="M412.3,420.17,442,431.4l16.455,34.368-21.694-1.252s-4.955-.358-7.1-3.756c-1.632-2.583-9.049-21.808-13.359-32.263,0,0-4.6-2.356-5.315-4.3C410.23,422.128,412.3,420.17,412.3,420.17Z" transform="translate(-233.262 -229.051)"/><path class="c" d="M370.31,270.571a7.629,7.629,0,0,1-7.553-6.63H349.611v-6.485l15.57-.129a7.609,7.609,0,0,1,10.164-.085l16.116-.131v6.83h-13.6A7.628,7.628,0,0,1,370.31,270.571Zm-18.727-8.6h13.083v.986a5.644,5.644,0,0,0,11.288,0v-.986h13.534V259.1l-14.929.121-.291-.287a5.637,5.637,0,0,0-7.982.067l-.287.292-14.416.119Z" transform="translate(-196.584 -130.282)"/><path class="c" d="M503.907,269.47H492.235V257.8Z" transform="translate(-282.046 -131.756)"/><path class="j" d="M424.5,440.951l15.617,5.534,6.047,13.822-15.472.972Z" transform="translate(-241.457 -241.503)"/><path class="f" d="M460.664,446.524l-1.451,8.2-68.483-12.12-4.693-3.547-2.693-2.036,3.274-.974,5.563-1.652.024,0Z" transform="translate(-216.797 -237.578)"/><path class="k" d="M471.369,452.612l-.669,3.158-68.926-12.12.07-3.332Z" transform="translate(-227.841 -241.124)"/><path class="g" d="M437.811,481.1l-6.853-3.369-16.438-31.656s6.027-2.247,10.631,5.114l6.641,10.01,4.153.983,2.633-7.609,5.97,11.228Z" transform="translate(-235.477 -244.38)"/><path class="g" d="M467.429,525.578l1.808,4.849,24.247-.575-3.108-6.333Z" transform="translate(-267.181 -290.979)"/><path class="h" d="M490.148,605.7h35.233l-24.768-57.645H470.9Z" transform="translate(-269.262 -305.679)"/><path class="i" d="M469.5,537.865h26.35l1.452,4.082h-26.35Z" transform="translate(-268.422 -299.575)"/><path class="g" d="M396.232,434.4l-1.475,8.2-4.693-3.547.581-3.01,5.563-1.652Z" transform="translate(-220.824 -237.578)"/></g></svg>