<svg xmlns="http://www.w3.org/2000/svg" width="318.812" height="187.147" viewBox="0 0 318.812 187.147"><defs><style>.a{fill:#fff;}.b{fill:#3d9218;}.c{fill:#9ef279;}.d{fill:#2f6f13;}.e{fill:#f9fff7;}.f{fill:#1c410c;}.g{fill:#6b3870;}.h{fill:#193f09;}.i{fill:#62ec26;}.j{fill:#ff9985;}.k{fill:#91b4de;}.l{fill:#5c332f;}.m{fill:#432623;}.n{fill:#ffa27f;}.o{fill:#000543;}.p{fill:#fa694f;}.q{fill:#d7e1fc;}.r{fill:#af5bb7;}.s{fill:#6d72a0;}.t{fill:#fbe9dc;}.u{fill:#ff685a;}.v{fill:#d14c46;}.w{fill:#4f2b52;}.x{fill:#e6f1e1;}.y{fill:#b2c3eb;}</style></defs><g transform="translate(0 0.105)"><rect class="a" width="318.812" height="187.147" transform="translate(0 -0.105)"/><g transform="translate(13.248 12.488)"><g transform="translate(11.985 41.823)"><g transform="translate(0 37.625)"><path class="b" d="M100.667,298.7a20.442,20.442,0,0,1,4.264-1.726,18.133,18.133,0,0,1,9.779.243,36.972,36.972,0,0,1,6.46,2.9c1.022.541,2.077,1.1,3.145,1.6,2.846,1.34,6.989,2.723,10.581,1.706.051.066.1.129.154.2a56.321,56.321,0,0,1,4.517,7.361c1.9,3.489,3.866,7.1,6.932,10.132q.547.542,1.132,1.049c-2.942,1.349-6.483,1.223-9,.859a56.741,56.741,0,0,1-8.252-2.059q-.831-.252-1.662-.5a29.083,29.083,0,0,0-7.306-1.426c-.463-.013-.915,0-1.357.021a28.408,28.408,0,0,0-4.017-7.3C111.684,306.413,105.342,303.118,100.667,298.7Z" transform="translate(-77.639 -246.262)"/><g transform="translate(0 0)"><path class="b" d="M63.057,204.351c1.481,1.19,3.1,2.3,4.668,3.372a38.246,38.246,0,0,1,7.847,6.437,29.03,29.03,0,0,1,4.574,8.8c-2.476-.15-5.046-1.447-7.844-3.96-.465-.418-.932-.856-1.382-1.28a22.626,22.626,0,0,0-6.056-4.515,17.525,17.525,0,0,0-6.529-1.374q-.887-1.442-1.783-2.919c-1.863-3.081-3.6-6.313-3.883-9.414a6.368,6.368,0,0,1,1.869-5.425A32.115,32.115,0,0,0,63.057,204.351Z" transform="translate(-52.633 -192.985)"/><g transform="translate(1.904)"><path class="b" d="M137.473,247.368c-.3.787-.683,1.564-1.055,2.316a21.46,21.46,0,0,0-1.26,2.89,11.524,11.524,0,0,0,1.194,9.333A38.311,38.311,0,0,0,132.8,260c-.936-.44-1.909-.851-2.849-1.249a31.7,31.7,0,0,1-6.339-3.251,14.985,14.985,0,0,1-3-2.909c-1.432-2.871-.875-6.435,1.664-10.612.208-.341.421-.681.635-1.022a16.535,16.535,0,0,0,2.475-5.178,8.971,8.971,0,0,0,.151-2.682,72.283,72.283,0,0,0,10.144,5.373,25.879,25.879,0,0,1,2.527,1.246A16.172,16.172,0,0,1,137.473,247.368Z" transform="translate(-89.522 -213.302)"/><path class="b" d="M153.9,270a33.809,33.809,0,0,1,8.712,7.906,56.988,56.988,0,0,1,4.587,7.47c1.871,3.435,3.806,6.987,6.777,9.927a37.023,37.023,0,0,0,11.612,7.215h8.46a9.285,9.285,0,0,0,1.882-4.2,14.843,14.843,0,0,0-.525-5.863,25.175,25.175,0,0,0-7.453-12.693c-4.611-4.1-10.941-6.311-15.281-10.621-7.141-7.092-8.05-15.949-17-21.4a16.3,16.3,0,0,1-.8,7.447c-.3.806-.695,1.593-1.072,2.354a21.084,21.084,0,0,0-1.236,2.832,11.191,11.191,0,0,0,1.515,9.563Z" transform="translate(-106.303 -220.923)"/><path class="b" d="M146.129,353h32.027a39.091,39.091,0,0,1-8.759-5.29c-3.117,1.481-6.874,1.355-9.53.972a57.376,57.376,0,0,1-8.37-2.085q-.828-.252-1.657-.5a28.42,28.42,0,0,0-7.1-1.393c-.4-.011-.792,0-1.176.017a34.085,34.085,0,0,0,3.635,7.09C145.489,352.214,145.8,352.608,146.129,353Z" transform="translate(-100.832 -271.396)"/><path class="b" d="M90.229,219.187c-.215.342-.43.684-.638,1.027-2.062,3.392-2.849,6.411-2.358,9.014a41.6,41.6,0,0,1-3.025-6.889c-1.243-3.358-2.528-6.832-4.985-9.767a38.987,38.987,0,0,0-8.049-6.619c-1.55-1.061-3.153-2.158-4.6-3.323a31.105,31.105,0,0,1-8.41-10.24,10.985,10.985,0,0,1,7.411.125c3.6,1.186,6.9,3.508,9.987,5.882,5.953,4.584,11.292,8.979,17.181,12.768a8.712,8.712,0,0,1-.094,2.983A16.233,16.233,0,0,1,90.229,219.187Z" transform="translate(-57.416 -191.803)"/><g transform="translate(0 0.586)"><path class="b" d="M71.149,233.531a22.1,22.1,0,0,1,5.858,4.385c.454.427.923.867,1.393,1.29,3,2.691,5.777,4.051,8.495,4.158l.071.192c1.624,4.388,3.3,8.926,7.614,12.07A32.559,32.559,0,0,0,101.142,259c.931.393,1.892.8,2.808,1.23a34.357,34.357,0,0,1,12.123,9.319c-3.345.892-7.239-.419-9.934-1.688-1.052-.5-2.1-1.05-3.114-1.586a37.567,37.567,0,0,0-6.6-2.961,18.894,18.894,0,0,0-10.2-.253,21.151,21.151,0,0,0-4.455,1.807,17.913,17.913,0,0,1-5.308-9.037c-1.876-8.454-6.374-15.669-11.25-23.593A16.456,16.456,0,0,1,71.149,233.531Z" transform="translate(-61.089 -213.441)"/><g transform="translate(10.635 24.562)"><path class="b" d="M241.61,344.334a.41.41,0,0,0-.027.417l.22.14a.431.431,0,0,0,.474-.229c.054-.138,0-.337-.324-.444Z" transform="translate(-163.513 -296.296)"/><path class="b" d="M209.53,353.656l.142.3a.466.466,0,0,0,.171.123l.367-.11a.432.432,0,0,0,.151-.132l-.143-.3a.463.463,0,0,0-.171-.123l-.369.111A.434.434,0,0,0,209.53,353.656Z" transform="translate(-146.85 -301.085)"/><path class="b" d="M200.147,326.612l.363.117a.564.564,0,0,0,.236-.017l.137-.287a.3.3,0,0,0-.022-.189l-.362-.118a.565.565,0,0,0-.234.016l-.141.287A.312.312,0,0,0,200.147,326.612Z" transform="translate(-141.95 -286.871)"/><path class="b" d="M132.385,296.424c-.285-.006-.556.3-.45.516a.342.342,0,0,0,.23.171l.168-.049a.2.2,0,0,1-.1-.03l.4-.051.112-.16v-.2A.432.432,0,0,0,132.385,296.424Z" transform="translate(-106.443 -271.416)"/><path class="b" d="M204.943,326.418a1.05,1.05,0,0,0-.595.385l-.121.324-.009.474a.819.819,0,0,0,.136.368l.29.211.3.106.392.024a1.143,1.143,0,0,0,.716-.444.953.953,0,0,0-.151-1.233l-.3-.158-.293-.066Z" transform="translate(-144.085 -287.025)"/><path class="b" d="M184.014,297.717a.43.43,0,0,0,.3.2l.3-.088.017-.024a.4.4,0,0,0-.073-.559l-.462.077A.382.382,0,0,0,184.014,297.717Z" transform="translate(-133.551 -271.843)"/><path class="b" d="M235.3,354.21l-.645-.633a2.358,2.358,0,0,0-1.746,0,1.821,1.821,0,0,0,.179-.182l.176-.376.032-.174-.036-.412a1.646,1.646,0,0,0-1.5-1.02l-.014.048-.625-.053-.349.081-.694.441-.226.323-.117.692.084.279.492.571a2.391,2.391,0,0,0,1.54.292,2.216,2.216,0,0,0,.363-.091c-.04.033-.081.056-.121.093l-.243.932.211.493a1.794,1.794,0,0,0,1.259.813l.4.026.282-.028a1.738,1.738,0,0,0,1.115-.666,1.479,1.479,0,0,0,.234-.591l-.083-.021.13-.524Z" transform="translate(-157.369 -300.039)"/><path class="b" d="M196.814,338.434c-.019-.012-1.05.459-1.05.459a1.046,1.046,0,0,0,.147.152l-.209.128.4.363-.424-.342-.145.48.14.356.456.33.453.076.382-.036.288-.113.272-.22.094-.228a.7.7,0,0,0-.3-.734l-.383-.594v-.061l-.042,0-.024-.036Z" transform="translate(-139.562 -293.274)"/><path class="b" d="M201.915,344.47l.031.053-.237.039-.227.122a1.109,1.109,0,0,0-.52-.237,1.173,1.173,0,0,0-1.359.664l.406.552.041.012a1.266,1.266,0,0,0,.42.257l.334-.05.077.419a2,2,0,0,0,1.226.811,2.372,2.372,0,0,0,1.5-.173l.368-.271.126-.143.2-.379a1.17,1.17,0,0,0-.055-.693l.451-.113a1.624,1.624,0,0,0,.341-.351,1.108,1.108,0,0,0-.394-1.66l-.87.488.324-.518a.88.88,0,0,0,.456-.3l.064-.367-.009-.032a.728.728,0,0,0-.314-.724l-.421-.127-.365.007-.388.127a.934.934,0,0,0-.315.273.7.7,0,0,0-.093.608l.188.257.1.061-.817.193-.225.321Z" transform="translate(-141.682 -295.009)"/><path class="b" d="M222.217,360.53a1.184,1.184,0,0,0-.617-.934l-.869.49.45-.725-.471-.193-1.574.375-.224.322-.025.665Z" transform="translate(-151.721 -304.079)"/><path class="b" d="M238.4,330.588l-.144.366.073.414a.848.848,0,0,0,.269.348l.471.136c-.17-.448-.364-.893-.574-1.336A.91.91,0,0,0,238.4,330.588Z" transform="translate(-161.807 -289.163)"/><path class="b" d="M243.191,351.15l-.044.012-.447.371a.676.676,0,0,0-.058.772.842.842,0,0,0,.373.308c.027-.128.056-.256.077-.386A9.243,9.243,0,0,0,243.191,351.15Z" transform="translate(-164.038 -299.905)"/><path class="b" d="M169.352,329.521a1.347,1.347,0,0,0-1.189.519l-.123.231.024.328a2.654,2.654,0,0,0-.49.181l-.274.194-.345.62-.015.22.134.495a1.861,1.861,0,0,0,1.213.815,1.981,1.981,0,0,0,1.305-.177,1.543,1.543,0,0,0,.209-.146l.908-.421h.077a.134.134,0,0,1,0-.034l.042-.021-.029-.039c.014-.016-.552-.708-.552-.708a1.1,1.1,0,0,0-.083-.187,1.489,1.489,0,0,0,.257-.25,1.3,1.3,0,0,1,.15-.165l.128-.24.035-.22-.047-.258A1.654,1.654,0,0,0,169.352,329.521Z" transform="translate(-124.678 -288.644)"/><path class="b" d="M118.117,281.253c-.285-.007-.557.3-.452.515a.343.343,0,0,0,.229.171l.168-.049a.192.192,0,0,1-.1-.03l.4-.05.112-.16v-.2A.431.431,0,0,0,118.117,281.253Z" transform="translate(-99.014 -263.518)"/><path class="b" d="M190.956,311.365l-.363.009a1.059,1.059,0,0,0-.6.384l-.121.324-.01.474a.813.813,0,0,0,.135.368l.289.212.3.106.392.025a1.146,1.146,0,0,0,.717-.443.953.953,0,0,0-.147-1.233l-.3-.158Z" transform="translate(-136.613 -279.194)"/><path class="b" d="M239.642,336.335a1.066,1.066,0,0,0,.679.567l.355.02c-.132-.436-.273-.873-.428-1.309l-.368-.213A.857.857,0,0,0,239.642,336.335Z" transform="translate(-162.497 -291.706)"/><path class="b" d="M210.042,359.715h3.5c0-.026,0-.056,0-.071a2.535,2.535,0,0,1-.02-.262l-.09-.3-.568-.616a2.737,2.737,0,0,0-1.635-.228l0-.274a.092.092,0,0,1,.048.05.494.494,0,0,1,0-.059.288.288,0,0,0-.137-.3.507.507,0,0,0-.395-.017l-.161.252a.5.5,0,0,0,.257.454,2.117,2.117,0,0,0-.351.145l-.48.769,0,.338Z" transform="translate(-147.099 -303.264)"/><path class="b" d="M169.744,282.636a.432.432,0,0,0,.3.2l.3-.087.017-.024a.4.4,0,0,0-.071-.559l-.462.076A.384.384,0,0,0,169.744,282.636Z" transform="translate(-126.122 -263.993)"/><path class="b" d="M223.99,340.927a1.242,1.242,0,0,0-1.279-.115l-.058.076-.13-.128a2.381,2.381,0,0,0-2.561.507l-.245.932.21.493a1.529,1.529,0,0,0,.253.319l-.175.038a.441.441,0,0,0-.164.125l.112.3a.442.442,0,0,0,.154.133l.09-.02a.743.743,0,0,0,.3.458l.145.043.026.032.167.028.113.034.033-.011.518.085a.792.792,0,0,0,.409-.5.675.675,0,0,0-.009-.265,1.727,1.727,0,0,0,1.08-.653,1.307,1.307,0,0,0,.156-.3l.1.019a1.117,1.117,0,0,0,.935-.442A.874.874,0,0,0,223.99,340.927Z" transform="translate(-152.153 -294.405)"/><path class="b" d="M182.685,323.375c-.018-.012-1.051.458-1.051.458a1.427,1.427,0,0,0,1.149.518l.5-.139-.487-.758,0-.061-.042,0-.024-.036Z" transform="translate(-132.328 -285.435)"/><path class="b" d="M207.417,335.548l.762.154.325-.022.839-.346a2.913,2.913,0,0,0,.342-.279,2.043,2.043,0,0,0,.566.27l.464,0,.356-.125.368-.424a.752.752,0,0,0-.147-.634l.019-.062-.023-.291a1.262,1.262,0,0,0-1.148-.711l-.44-.26-.441-.052-.61.169c-.01.005-.015.012-.025.017-.045-.007-.082-.021-.129-.026l-.674.068-.259.092-.508.349-.14.185A1.247,1.247,0,0,0,207.417,335.548Z" transform="translate(-145.343 -290.333)"/><path class="b" d="M212.412,326.031a1.241,1.241,0,0,0-1.278-.117l-.293.383-.019.261-.042,0c-.186.54.14.839.526,1.045l.349.068a1.119,1.119,0,0,0,.936-.441A.873.873,0,0,0,212.412,326.031Z" transform="translate(-147.472 -286.704)"/><path class="b" d="M224.713,316.635l.551-.051a1.1,1.1,0,0,0,.437-.23l.145-.364-.075-.43a.874.874,0,0,0-.282-.345l-.464-.13-.522.048a1.109,1.109,0,0,0-.455.236l-.145.366.072.415a.85.85,0,0,0,.268.348Z" transform="translate(-154.332 -281.131)"/><path class="b" d="M229.329,337.647l.262-.078.06-.037a1.247,1.247,0,0,0,.362.135,1.34,1.34,0,0,0,1.239-.515l.052-.082.047-.316-.067-.241-.183-.254a1.486,1.486,0,0,0-1.415-.23l-.535-.077-.42.111-.447.371a.674.674,0,0,0-.06.771,1.073,1.073,0,0,0,.776.462Z" transform="translate(-156.533 -291.987)"/><path class="b" d="M152.092,304.651l0,.317a.163.163,0,0,1-.01-.159c-.132.053-.362.188-.362.394l.19.211.142.034c.043.01.068.014.083.02a.592.592,0,0,1,.07.051l.109.082.407-.049.226-.323-.234-.313a.326.326,0,0,1-.035-.089.324.324,0,0,0-.237-.255A.406.406,0,0,0,152.092,304.651Z" transform="translate(-116.756 -275.65)"/><path class="b" d="M156.9,298.5a.1.1,0,0,1,.024-.016l.031.375a.73.73,0,0,0,.527.026.433.433,0,0,0,.25-.439l-.153-.185A.512.512,0,0,0,156.9,298.5Z" transform="translate(-119.451 -272.347)"/><path class="b" d="M177.27,330.153l.117.463.3.277.562.177a1.279,1.279,0,0,0,1.375-.322l-.039-.608-.344-.307-.326-.159a1.459,1.459,0,0,0-1.017-.092A.986.986,0,0,0,177.27,330.153Z" transform="translate(-130.056 -288.648)"/><path class="b" d="M130.309,271.491a.484.484,0,0,0,.081.488.623.623,0,0,0,.434.158l.256-.137a.663.663,0,0,0-.142-.784l-.065-.085-.5.118Z" transform="translate(-105.593 -258.248)"/><path class="b" d="M177.636,324.669l-.382-.374-.257.168-.206.275-.089.365.054.307.144.231.27.219a1.3,1.3,0,0,0,1.56-.36l.122-.4-.089-.335-.584.093Z" transform="translate(-129.76 -285.925)"/><path class="b" d="M221.735,350.029a1.029,1.029,0,0,0,.045-1.159,1.84,1.84,0,0,0-1.434-.763l-.674.07-.259.093-.507.349-.139.186a1.33,1.33,0,0,0-.269.875,2.243,2.243,0,0,0-.425-.068l0-.089-.244-.411a1.081,1.081,0,0,0-.393-.254l-.49-.009-.49.185a.915.915,0,0,0-.317.313l0,.391.242.4a.991.991,0,0,0,.136.118c-.026.032-.057.059-.081.093l-.134.225-.036.618.087.242.418.5a2.242,2.242,0,0,0,1.538.34c.045-.007.086-.023.13-.032l-.083.2a.675.675,0,0,0,.07.416l.341.265.514.144a1.289,1.289,0,0,0,.51-.045l.208-.165a1.121,1.121,0,0,0,.392-.123l.112-.092a.683.683,0,0,0,.147-1.107,1.232,1.232,0,0,0-.667-.345.393.393,0,0,0,.035-.292.488.488,0,0,0-.339-.279s.361.069.361.069l.325-.024.838-.347A1.987,1.987,0,0,0,221.735,350.029Z" transform="translate(-150.29 -298.321)"/><path class="b" d="M229.658,333.4l.026.185a.644.644,0,0,0,.578.218.428.428,0,0,0,.41-.423l-.182-.211C229.889,333.005,229.7,333.306,229.658,333.4Z" transform="translate(-157.328 -290.52)"/><path class="b" d="M164.448,337.466a2.067,2.067,0,0,0,.875-.511,2.194,2.194,0,0,0,1.066-.48,1.153,1.153,0,0,0,.152.094,1.672,1.672,0,0,0,1.525-.17l.175-.25.061-.238-.038-.29a1,1,0,0,0-.521-.461l-.412-.083-.572.012a2.488,2.488,0,0,0-1.274-.96l-.891-.082-.363.081-.723.465a1.672,1.672,0,0,0-.215.514,1.863,1.863,0,0,0-1.273.655l-.109.713-.21-.121-.573-.129-.06.012-.026-.012-.026-.08a2.142,2.142,0,0,0-.743-.5.886.886,0,0,0,.7-.6l-.265-.317a.815.815,0,0,0-.088-.228l-.432-.281-.226-.038-.441.064a.852.852,0,0,0-.261.2l-.411.216a.7.7,0,0,0,.161.622,1.04,1.04,0,0,0,.262.208l-.058,0-.927.581-.024,0-.09-.3a.919.919,0,0,0-.268-.321l-.477-.129-.59.073a1.1,1.1,0,0,0-.536.42.767.767,0,0,0-.061-.172,1.2,1.2,0,0,0-.912-.546l-.307.016a1.114,1.114,0,0,0-.69.427.609.609,0,0,0-.123.319l-.057.306.058.249.029.043-.112-.045-.229-.043h-.278a1.485,1.485,0,0,0-.254.074l-.088-.025-.57.061a1.084,1.084,0,0,0-.4.213l-.108.264-.075-.7-.178-.271-.577-.383a1.362,1.362,0,0,0,.718.235l.429-.111.287-.2.2-.268a.994.994,0,0,0-.541-1.046l-.123-.024.335-.129a1.41,1.41,0,0,0,.618-1.2l-.283-.546-.2-.189-.615-.314a2.042,2.042,0,0,0-1.13.1c-.043-.007-.086-.016-.129-.022a1.563,1.563,0,0,0-.909-.991l-.949-.06-.366.1-.307.24-.044-.056-.111.175-.25.2.1.043-.313.5.046.382.1.111c-.007.01-.016.014-.023.024l-.06.24.015.206.092.231a1.125,1.125,0,0,0,.839.421,1.966,1.966,0,0,0,.914.942l.557-.635-.552.638.508.165.229.029.534-.03c.013,0,.022-.011.035-.014a.83.83,0,0,0,.208.734,1.018,1.018,0,0,0,.125.111l-.123-.082a2.812,2.812,0,0,0-1.885.1l-.571.713-.045.335.3.634-.071.031a1.687,1.687,0,0,0,1.11.771l.054.056.4.186.454.048.359-.077.359-.222.112-.16.044-.308.214-.255.1-.251.062.381a.856.856,0,0,0,.266.343l.03.01.014.114a1.076,1.076,0,0,0,.7.551,1.1,1.1,0,0,0,.938-.123,1.074,1.074,0,0,0,.83-.435l.061-.129.052-.186,0-.2a1.375,1.375,0,0,0-.333-.558,1.317,1.317,0,0,0,.55.063,1.178,1.178,0,0,0,.841-.467.884.884,0,0,0,.093-.176l.1.207.267.247.3.139.26.027a.65.65,0,0,0,.049.23L157,337.2a.427.427,0,0,0-.158.134l.141.3a.461.461,0,0,0,.184.131l.354-.113a.465.465,0,0,0,.134-.114c.02.01.034.025.055.035l.462.036.039-.008a1.311,1.311,0,0,0,.14-.005,1.343,1.343,0,0,0,.1.128l.5.233a1.642,1.642,0,0,0-.921.612l.117.326,0,.111a.945.945,0,0,0-.594.057.6.6,0,0,1,.281.039h-.289a1.383,1.383,0,0,0-.57-.056,2.175,2.175,0,0,0-.733-.031l-.324.174a1.728,1.728,0,0,0-.473.167,1.06,1.06,0,0,0-.493,1.535l.467.317-.006.046a1.826,1.826,0,0,0,1.215.437,1.248,1.248,0,0,0,.271.15l.581-.023.387-.2.222-.2a1.234,1.234,0,0,0,.335-.45l.068-.269-.162-.333a1.177,1.177,0,0,0,.34-.273,3.458,3.458,0,0,0,.632.319l.266-.02a.215.215,0,0,0,.066-.005l.944-.073.183-.171.445-.1a1.146,1.146,0,0,0,.061-1.271,1.513,1.513,0,0,0-.161-.194,1.662,1.662,0,0,0,.272-.114l.153-.1.175-.144a1.2,1.2,0,0,0,.283-.452,1.14,1.14,0,0,0,.257-.486,1.432,1.432,0,0,0,.022-.172l.181.086.232.214.058-.075.6.287.477-.01,1-.477A1.026,1.026,0,0,1,164.448,337.466Z" transform="translate(-114.706 -289.326)"/><path class="b" d="M117.26,292.211l-.309.163-.066.273.188.245a.577.577,0,0,0,.394-.028.42.42,0,0,0,.234-.4l-.212-.217Z" transform="translate(-98.62 -269.222)"/><path class="b" d="M160.333,306.9l.043.118a.9.9,0,0,0,.476.962l.242.1.225.048.267.006a1.821,1.821,0,0,0,.59-.18,1.85,1.85,0,0,1,.227-.094l.249-.166.154-.183.1-.246a1.265,1.265,0,0,0-.794-1.131,1.542,1.542,0,0,0-1.362.035l-.239.161-.161.3Z" transform="translate(-121.239 -276.396)"/><path class="b" d="M141.969,244.874l.19-.1.114-.179a.331.331,0,0,0-.215-.3c-.254-.108-.668.066-.694.3a.261.261,0,0,0,.111.234l.179.016a.156.156,0,0,1-.078-.064Z" transform="translate(-111.363 -244.26)"/><path class="b" d="M158.424,322.67l-.5.024-.422.2.339.4-.369-.381-.217.457a.5.5,0,0,0-.263-.016.312.312,0,0,0-.235.311l.1.072a.4.4,0,0,0,.051.293l.325.1.326-.093.041-.059.139.129.416.115c-.01.03-.027.049-.035.082a1.948,1.948,0,0,0-1.5.2l-.048.025-.191.344c-.034.016-.068.033-.1.05a1.413,1.413,0,0,0-.8,1.116,1.456,1.456,0,0,0,.706,1.264l.754.236.335.008.77-.2a1.416,1.416,0,0,0,.619-.754,1.157,1.157,0,0,0,.55-1.207l.133.04.276.019.317-.049a1.24,1.24,0,0,0,.819-1.1,1.051,1.051,0,0,0-.734-.931l-.3-.088-.407.033a1.054,1.054,0,0,0-.57-.577Z" transform="translate(-118.711 -285.079)"/><path class="b" d="M161.67,319.173l.385.471.435.163,1.164-.068a1.325,1.325,0,0,1-.5.149,2.5,2.5,0,0,0,1.074-.141,2.6,2.6,0,0,0,1.523-.131l-.512-.872.517.87.425-.268.142-.144.226-.387a1.671,1.671,0,0,0-.6-1.519l-.642-.333.045-.1a.546.546,0,0,0-.526-.316.387.387,0,0,0-.353.276.266.266,0,0,0,.007.085l-.571.1a2.224,2.224,0,0,0-.48.38,2.206,2.206,0,0,0-1.513.126l-.524.629-.068.306.111.337-.082,0,.136.167.09.273Z" transform="translate(-121.752 -281.887)"/><path class="b" d="M190.874,297.653l-.186-.249-.227-.164-.332-.122a1.3,1.3,0,0,0-.751.127l-.29.245-.272.417a.774.774,0,0,0-.083.375l.142.291.212.2.34.163a1.4,1.4,0,0,0,.893-.137A1.016,1.016,0,0,0,190.874,297.653Z" transform="translate(-136.023 -271.772)"/><path class="b" d="M220.755,336.672a.817.817,0,0,0,.3.746l.351.164.326.051.172-.77.024-.015a.422.422,0,0,1,.129-.072l-.565-.851C220.945,336.159,220.794,336.459,220.755,336.672Z" transform="translate(-152.688 -291.98)"/><path class="b" d="M147.559,295.42a1.379,1.379,0,0,0-.751.194l-.047.025-.212.322-.03.268.1.315.2.233.382.2.366.06.448-.069.194-.1.241-.275.1-.36a.727.727,0,0,0-.062-.381l-.357-.286Z" transform="translate(-114.047 -270.892)"/><path class="b" d="M120.392,278.206l0,.277a.807.807,0,0,1,.068.078.538.538,0,0,0,.585.245l.163-.16a.547.547,0,0,0-.251-.537A.483.483,0,0,0,120.392,278.206Z" transform="translate(-100.445 -261.854)"/><path class="b" d="M162.279,352.945a1.073,1.073,0,0,0,.084-.8,1.693,1.693,0,0,0,.34.017.644.644,0,0,0,.067.071l.03.01.014.114a1.077,1.077,0,0,0,.7.55,1.089,1.089,0,0,0,.25.04h3.332a1.276,1.276,0,0,0-.043-.18l.412,0,.373-.142.662-.693a1.924,1.924,0,0,0,.108-.422l.231.038.2-.031.079.137a2.586,2.586,0,0,0,1.846.3l-.014.024.008.337.4.6-.021.012a1.855,1.855,0,0,0-.6-.454,2,2,0,0,0-2.4.466h10.237a1.181,1.181,0,0,0,.117-.136l.082-.144.074-.192a1.284,1.284,0,0,0-1.017-1.493,2.084,2.084,0,0,0-.688-.086l-.069-.063c-.094-.037-.183-.062-.271-.088.025-.024.051-.04.077-.066l-.941-.6.945.6.226-.395.046-.181-.015-.43c-.206-.639-.872-.928-1.384-1.151l-.891-.082-.233.052a1.06,1.06,0,0,0-.187-.683,1.661,1.661,0,0,0-1.3-.669l-.157.111a1.626,1.626,0,0,0-1.55.582l-.135.272.038.683.109.2.394.4a2.227,2.227,0,0,0,1.025.318,1.467,1.467,0,0,0-.571.451l-.113.756.009.024a2.351,2.351,0,0,0-.318.08l.094-.171-.07-.327a1.492,1.492,0,0,0-1.252-1.225l-.572.043a1.827,1.827,0,0,0-.7-.293,2.032,2.032,0,0,0-.977.065,1.169,1.169,0,0,0,.113-.544h.056l.634-.132.119-.058a1.574,1.574,0,0,0,.553-.479l.071-.106c-.008,0,.128-.241.128-.241l.087-.3-.127-.563c.023,0,.262-.094.262-.094a1.4,1.4,0,0,0,.423-.375,1.347,1.347,0,0,1,.149-.166l.128-.24.035-.22-.048-.258a1.657,1.657,0,0,0-1.337-.734,1.345,1.345,0,0,0-1.188.521l-.122.231.022.29-.217-.362a1.059,1.059,0,0,0-.4-.267l-.491-.009-.5.187a.88.88,0,0,0-.317.321v.382l.256.417a1.188,1.188,0,0,0,.134.111l-.015.024a1.618,1.618,0,0,0-1.307.723l-.028.04.021.378c-.021.026-.042.055-.061.082a1.211,1.211,0,0,0-.09,1.293,1.884,1.884,0,0,0-.811.154,2.085,2.085,0,0,0-1.464.544l-.215.868.033.091h-.128l0-.034a1.137,1.137,0,0,0-1.262.466l-.04.195-.109-.049-.28-.029a1.762,1.762,0,0,0-1.77.637,1.286,1.286,0,0,0-.233.9,1.908,1.908,0,0,0-1.1-.1,1.072,1.072,0,0,0-.2-.7,1.762,1.762,0,0,0,.722-.148,1.366,1.366,0,0,0,.848-1.179l-.017-.069a.893.893,0,0,0,.462-.441.727.727,0,0,0-.318-.915,1.233,1.233,0,0,0-1.227.009l-.03.131a1.913,1.913,0,0,0-2.218.534l-.136.616.052.259.374.5a2.067,2.067,0,0,0-1.3.107l-.362.262-.161.178-.2.372a1.04,1.04,0,0,0,.163.826Z" transform="translate(-118.058 -296.494)"/><path class="b" d="M199.719,334.464l-.74.74-.085.513a1.363,1.363,0,0,0,.679,1.174l.346.166.269.077a2.115,2.115,0,0,0,1.376-.19,1.942,1.942,0,0,0,.541-.44l-.063-.048.41-.418.084-.315-.228-.793A2.385,2.385,0,0,0,199.719,334.464Z" transform="translate(-141.312 -291.132)"/><path class="b" d="M176.84,305.086c-.01-.018-1.2.03-1.2.03a1.1,1.1,0,0,0,.747.872l.532.057-.017-.848.035-.054a.245.245,0,0,1-.037-.017v-.04Z" transform="translate(-129.206 -275.923)"/><path class="b" d="M190.011,325.81l-.258-.435a.977.977,0,0,0-.683.662,1.136,1.136,0,0,0,.393.99l.1.119.582.222.48-.045.495-.337a1.626,1.626,0,0,0,.113-.688,1,1,0,0,0,.922-.346l.065-.367-.009-.032a.613.613,0,0,0,0-.066,2.545,2.545,0,0,0,.737-.237,1.184,1.184,0,0,0,.687-1.012,1.4,1.4,0,0,0-.865-1.192l-.646-.181-.285-.011-.652.128-.229.115c-1,.534-1.021,1.357-.62,1.9l.109.074a.491.491,0,0,0-.037.039.69.69,0,0,0-.1.56l-.081.145Z" transform="translate(-136.188 -285.175)"/><path class="b" d="M183.743,312.9l.263-.3.011-.032a.658.658,0,0,0,.122-.755l-.308-.263-.333-.126-.42-.028a1.205,1.205,0,0,0-.436.129.853.853,0,0,0-.424.506l.025.3.23.386A1.133,1.133,0,0,0,183.743,312.9Z" transform="translate(-132.631 -279.208)"/><path class="b" d="M186.428,332.71l-1.056.122.81-.481-.316-.34-1.627-.233-.383.2-.52.766-.009.344.123.2v.134l.066.1a.758.758,0,0,1-.059-.22l.369.595a.791.791,0,0,1-.121-.1l.266.388.347.194,1.038.135a2.165,2.165,0,0,0,.5-.19A1.125,1.125,0,0,0,186.428,332.71Z" transform="translate(-133.209 -289.82)"/><path class="b" d="M193.1,344.7l.372-.527.058-.247-.1-.59a1.859,1.859,0,0,0-1.2-.863,2.151,2.151,0,0,0-1.488.213l-.246.152-.377.536-.057.246.1.592a1.841,1.841,0,0,0,1.2.852,2.133,2.133,0,0,0,1.479-.2Z" transform="translate(-136.717 -295.364)"/><path class="b" d="M199.834,318.933l.277.185a1.3,1.3,0,0,0,1.09-.056.92.92,0,0,0,.5-1.124,1.088,1.088,0,0,0-1.087-.562l-.478.235-.163.225-.036-.019A.733.733,0,0,0,199.834,318.933Z" transform="translate(-141.693 -282.322)"/><path class="b" d="M219.574,313.824l.171-.408a.7.7,0,0,0-.062-.407l-.346-.281-.5-.144a1.315,1.315,0,0,0-.543.047l-.334.273-.166.394a.694.694,0,0,0,.048.405l.348.29.525.152a1.3,1.3,0,0,0,.522-.048Z" transform="translate(-151.148 -279.822)"/><path class="b" d="M226.777,360.842a.518.518,0,0,0,.009.094h1.86a.943.943,0,0,0-.089-.117l-.39-.191-.366-.048-.071.013a.577.577,0,0,0-.164-.565l-.292-.081a1.041,1.041,0,0,0-.234.082,48.97,48.97,0,0,0-.393.626Z" transform="translate(-155.754 -304.484)"/><path class="b" d="M158.933,277.656l.054.255.109.082a.738.738,0,0,1,.064.047.452.452,0,0,1,.035.07l.052.112.395.1.384-.206-.036-.362a.3.3,0,0,1,.017-.092.26.26,0,0,0-.071-.311.419.419,0,0,0-.362-.056l-.174.283a.178.178,0,0,1,.08-.145A.666.666,0,0,0,158.933,277.656Z" transform="translate(-120.51 -261.45)"/><path class="b" d="M159.5,333.11l-.034,1.006a2.221,2.221,0,0,0,2.017.953l1-.655.119-.315a1.186,1.186,0,0,0-.447-1.536l-.373-.115.372-.017a1.262,1.262,0,0,0,.225-.2l.417-.163a.667.667,0,0,0-.082-.664,1.013,1.013,0,0,0-.566-.366,1.24,1.24,0,0,0-1.454.521l.317.588.039.016a.973.973,0,0,0,.139.138l-.24,0-.3.075a1.348,1.348,0,0,1,.258,0l-1.15.411Z" transform="translate(-120.786 -289.411)"/><path class="b" d="M126.172,314.7a1.285,1.285,0,0,0-1.041-.112l-.359.277-.186.464a.8.8,0,0,0,.313.669l.369.148.337.031.4-.076.047-.025.014.15.2.33.178.125.4.12.461-.007a1.263,1.263,0,0,0,.442-.141l.247-.346.021-.479a.955.955,0,0,0-.439-.535l-.044-.031-.445-.086-.331.041-.2.091A.811.811,0,0,0,126.172,314.7Z" transform="translate(-102.629 -280.843)"/><path class="b" d="M151.609,350.921l.433.432.364.145,1.013.021.322-.139a1.248,1.248,0,0,0,.7-1.513l.463-.624a1.232,1.232,0,0,0-.413-1.281,2.174,2.174,0,0,0-1.653-.393l-.6.217-.211.144-.373.474-.042.134a1.158,1.158,0,0,0,.018.619l-.276.256-.114.193-.106.5a1.331,1.331,0,0,0,.422.84Z" transform="translate(-116.45 -298.028)"/><path class="b" d="M115.578,303.293l.128-.28a.527.527,0,0,0-.485-.236l-.09-.012a.71.71,0,0,1-.1-.074.636.636,0,0,0-.7-.138l-.094.276A1.07,1.07,0,0,0,115.578,303.293Z" transform="translate(-97.238 -274.576)"/><path class="b" d="M102.249,299.065l.245.085a.59.59,0,0,0,.4.2l.3-.226c0-.046-.01-.092-.012-.139a.825.825,0,0,0-.695-.872l-.29.079a.7.7,0,0,0-.12.181.257.257,0,0,0,.077.311A.254.254,0,0,0,102.249,299.065Z" transform="translate(-90.898 -272.294)"/><path class="b" d="M135.247,324.832c0-.019,0-.04-.005-.056l-.594.054-.116-.15.326-.4a1.443,1.443,0,0,0-.9-.169,34.715,34.715,0,0,1,3.9,7.6,1.128,1.128,0,0,0,.281-.591l.092-.048.255-.3.11-.454-.059-.316-.155-.236-.288-.218a1.439,1.439,0,0,0-.627-.082l.6-.384a.705.705,0,0,1-.182.24,1.809,1.809,0,0,0,.667-.778,1.5,1.5,0,0,0,.1-.362l-.179-.617-.178-.228-.391-.249a1.5,1.5,0,0,0,.359-.31,2.586,2.586,0,0,0,.881-.257,1.265,1.265,0,0,0,.733-1,1.148,1.148,0,0,0-.5-1.023,1.643,1.643,0,0,0-.377-.222l.058.006.512-.137a.991.991,0,0,0,.36-.278l.063-.391-.09-.215a1.315,1.315,0,0,0-.859-1.767l-.4.107-.7.008a1.612,1.612,0,0,0-.464.207c.007-.03.019-.054.024-.086l-.09-.328-.188-.236-.193-.144-.55-.185-.159.015a1.316,1.316,0,0,0-.8-.037l.173-.169c-.012-.045-.024-.091-.034-.137a1.69,1.69,0,0,0-.106-.324,1,1,0,0,0,.96-.539l-.214-.34a.774.774,0,0,0-.051-.235l-.386-.322-.219-.06-.449.019a.93.93,0,0,0-.29.168l-.443.174a.679.679,0,0,0,.063.632.964.964,0,0,0,.107.11l-.072.028a.655.655,0,0,0-.091.192.272.272,0,0,0,.125.3c-.079.14-.007.288.156.37l.257.06a.712.712,0,0,0,.312.134c-.03.011-.06.018-.09.029l-.246.2-.13.228c-.18.438,0,.826.626,1.2l.045-.033.174.163.4.131.552-.043c.052-.026.116-.058.185-.1l.03.144c-.007.011.011.053.011.053l.16.753.226.139.152.352a2.112,2.112,0,0,0,.257.075,1.93,1.93,0,0,0-.43.154,1.765,1.765,0,0,0-.523.426,2.217,2.217,0,0,0-1.405.044C135.293,324.8,135.272,324.82,135.247,324.832Z" transform="translate(-107.51 -283.005)"/><path class="b" d="M144.126,346.327l-.6-.037-.248.036-.551.2-.138.066c.413,1.035.864,2.063,1.377,3.076l.245-.166.112-.16.074-.206.013-.185a1.935,1.935,0,0,0,.358-.514l.408-.6A1.3,1.3,0,0,0,144.126,346.327Z" transform="translate(-112.001 -297.375)"/><path class="b" d="M127.886,278.614a.464.464,0,0,0,.316-.409l-.123-.2a.531.531,0,0,0-.713.168.135.135,0,0,1,.027-.013l-.028.374A.724.724,0,0,0,127.886,278.614Z" transform="translate(-104.077 -261.789)"/><path class="b" d="M197.049,346.736l-.456.06-.108.264.247.288c.4.095.64-.006.667-.279l-.186-.225A.3.3,0,0,1,197.049,346.736Z" transform="translate(-140.059 -297.607)"/><path class="b" d="M164.894,292.619l.108-.263-.134-.257a1.091,1.091,0,0,0-.649-.011.348.348,0,0,0-.235.187c-.023.057-.053.2.16.345l.131-.017a.656.656,0,0,0,.317.154Z" transform="translate(-123.131 -269.136)"/><path class="b" d="M120.662,316.854l-.128.013q.553.436,1.1.884a1.121,1.121,0,0,0-.438-.735Z" transform="translate(-100.52 -282.051)"/><path class="b" d="M114.626,311.844l-.437.108q.67.5,1.339,1l.1-.24-.073-.341-.083-.174a.975.975,0,0,0-.357-.3Z" transform="translate(-97.217 -279.443)"/><path class="b" d="M177.173,319.678l-.294.117-.285.248-.039.081c-.088.214-.2.753.747,1.172l.461.042.374-.088.431-.383a.742.742,0,0,0-.085-.737,1.379,1.379,0,0,0-.915-.49Z" transform="translate(-129.654 -283.501)"/><path class="b" d="M105.093,248.779a.477.477,0,0,0,0,.492.59.59,0,0,0,.408.2l.276-.11a.649.649,0,0,0-.018-.791l-.052-.091-.515.067Z" transform="translate(-92.447 -246.457)"/><path class="b" d="M154.335,312.43l.08.128.544.279.484,0,.545-.284c.567-1.042-.087-1.511-.392-1.661l-.309.407-.217-.022-.188-.456a1.3,1.3,0,0,0-.476.222l-.034-.089a.7.7,0,0,0-.5-.042.362.362,0,0,0-.221.249l.136.236.032.012a.736.736,0,0,0,.272.036A1.111,1.111,0,0,0,154.335,312.43Z" transform="translate(-117.761 -278.911)"/><path class="b" d="M143.207,305.913l-.247.251-.145.352.005.309.107.243.235.244a1.332,1.332,0,0,0,1.606-.2l.184-.387-.036-.34-.595.034-.51-.239-.322-.409Z" transform="translate(-112.119 -276.282)"/><path class="b" d="M178.463,335.028a1,1,0,0,0-.363.279l-.065.386.177.423a.957.957,0,0,0,.371.3l.472.05.512-.135a1.022,1.022,0,0,0,.352-.263l.075-.4-.178-.431a1,1,0,0,0-.35-.291l-.487-.058Z" transform="translate(-130.454 -291.442)"/><path class="b" d="M167.963,261.423c-.085.209.05.365.4.466a.953.953,0,0,1,.115.037.11.11,0,0,1-.046-.083l.5.1a.351.351,0,0,0,.017-.417,1,1,0,0,0-.632-.3l-.286.086A.472.472,0,0,0,167.963,261.423Z" transform="translate(-125.198 -253.091)"/><path class="b" d="M194.249,320.038l0,.186a.609.609,0,0,0,.541.273.458.458,0,0,0,.473-.377l-.148-.227C194.54,319.669,194.308,319.947,194.249,320.038Z" transform="translate(-138.893 -283.589)"/><path class="b" d="M135.5,297.745a.666.666,0,0,0,.613.056l.163-.264a.512.512,0,0,0-.474-.366.415.415,0,0,0-.394.238A.282.282,0,0,0,135.5,297.745Z" transform="translate(-108.253 -271.804)"/><path class="b" d="M88.585,268.095l-.108.264.149.262a.591.591,0,0,0,.4.012.452.452,0,0,0,.294-.371l-.177-.237-.221-.061Z" transform="translate(-83.832 -256.6)"/><path class="b" d="M167.724,309.174l-.456.008-.305.109-.288.223-.152.249-.026.365.122.283.3.278.211.085.421.035.442-.1a1.116,1.116,0,0,0,.381-.228l.127-.387-.134-.469a1.119,1.119,0,0,0-.594-.429Z" transform="translate(-124.447 -278.053)"/><path class="b" d="M173.6,282.3a.669.669,0,0,1-.049.085c-.072.116-.223.354.034.525l.256.036c.128-.035.438-.21.453-.434.011-.166-.132-.3-.393-.344Z" transform="translate(-128.062 -263.995)"/><path class="b" d="M150.23,261.562c-.132.16-.176.287-.138.4l.178.174A.471.471,0,0,0,150.8,262c.09-.126.093-.328-.2-.489Z" transform="translate(-115.9 -253.238)"/><path class="b" d="M224.451,322.709l-.128-.366a.7.7,0,0,0-.5-.049.369.369,0,0,0-.227.246l.131.238.031.012A.687.687,0,0,0,224.451,322.709Z" transform="translate(-154.173 -284.868)"/><path class="b" d="M147.545,352.95l-.417-.167-1.095.009-.376.161-.129.154a24.005,24.005,0,0,0,1.328,2.3,1.535,1.535,0,0,0,.8-.481l-.672-.676.934.331.207-.385Z" transform="translate(-113.531 -300.755)"/><path class="b" d="M127.878,323.251a.843.843,0,0,0,.128-.292,1.259,1.259,0,0,0-.9-1.56,2.367,2.367,0,0,0-1.277-.134C126.536,321.9,127.223,322.558,127.878,323.251Z" transform="translate(-103.276 -284.33)"/><path class="b" d="M115.212,283.779c-.031.055-.064.073-.152.115l.021.372.313.125.385-.154c.164-.3.068-.51-.266-.572Z" transform="translate(-97.67 -264.773)"/><path class="b" d="M142.476,313.692a1.031,1.031,0,0,0,.585.237.78.78,0,0,0,.192.254.909.909,0,0,0,.6.646l.165.043.235.034.253-.007a1.931,1.931,0,0,0,.67-.29.692.692,0,0,0-.038.443,1.026,1.026,0,0,0,.644.653,1.454,1.454,0,0,0,.906.051l-.012.05-.329.49a1.443,1.443,0,0,0,.518,1.278l.119.037a1.089,1.089,0,0,0-.548.44l-.028.04-.009.366.122.253.267.247.3.139.454.048.358-.077.359-.222.114-.163.061-.335-.108-.361c-.012-.023-.037-.064-.065-.105l.066-.022.454.074a1.325,1.325,0,0,0,.763-1.107,1.344,1.344,0,0,0-.335-.916,2.023,2.023,0,0,0-1.906-.623,1.171,1.171,0,0,0,.117-.317l-.042-.245a1.033,1.033,0,0,0-.582-.535,1.08,1.08,0,0,0-.407-.085l-.386-.033-.306.057-.051.025.047-.092.037-.185-.022-.222a.907.907,0,0,0-.111-.2l.025-.071-.076-.291a1.4,1.4,0,0,0,.709-.157.919.919,0,0,0,.518-.707c.02-.275-.121-.545-.519-.811l-.286-.1a1.364,1.364,0,0,0-.861.132,1.089,1.089,0,0,0-.1.068l.019-.258-.122-.284-.3-.278-.208-.083-.456-.026-.352.094-.213.15a1.211,1.211,0,0,0-.306.02,1.063,1.063,0,0,0-.71.5l.045.471.059.071-.158.126-.174.4a.7.7,0,0,0,.048.4l.022.02-.051.106A.818.818,0,0,0,142.476,313.692Z" transform="translate(-111.76 -278.791)"/><path class="b" d="M194.386,308.826a.214.214,0,0,0-.005.054.607.607,0,0,0-.454-.2l-.249.161-.032.116a.584.584,0,0,1-.018.068.457.457,0,0,1-.058.058l-.094.09.091.325.419.167.373-.2a.526.526,0,0,1,.108-.032c.09-.021.257-.059.3-.2a.192.192,0,0,0-.006-.087.64.64,0,0,0,.3.1l.276-.167.067-.273-.173-.242a1.075,1.075,0,0,0-.644.054A.323.323,0,0,0,194.386,308.826Z" transform="translate(-138.492 -277.721)"/><path class="b" d="M113.563,307.99a1.174,1.174,0,0,0,1.491.507.772.772,0,0,0,.383-.365,1.176,1.176,0,0,0,.993-.4l.041-.465-.2-.337-.218-.206a1.591,1.591,0,0,0-.516-.333l-.326-.094-.431.08a1.081,1.081,0,0,0-.511-.444l-.369-.045-.319.043-.336.148a.6.6,0,0,0-.18.721.34.34,0,0,1,.082-.218l-.032.23C112.887,307.162,112.892,307.642,113.563,307.99Z" transform="translate(-96.588 -276.345)"/><path class="b" d="M98.876,295.06a1.084,1.084,0,0,0-.4.235l-.129.378.1.43a.906.906,0,0,0,.3.33l.471.109.543-.079a1.028,1.028,0,0,0,.417-.25l.118-.368-.107-.427a.915.915,0,0,0-.283-.318l-.481-.118Z" transform="translate(-88.969 -270.665)"/><path class="b" d="M118.427,299.027l.314-.047.333-.149a.684.684,0,0,0,.213-.843l.034-.089-.021-.284-.174-.312-.315-.186a1.211,1.211,0,0,0-.782-.043.878.878,0,0,0-.605.534l-.087.48.131.228a.888.888,0,0,0,.581.666Z" transform="translate(-98.855 -271.73)"/><path class="b" d="M134.436,303.835l.028.328.139.25.285.24.208.083.262.051.231,0,.269-.049c.465-.182.6-.454.634-.648a.785.785,0,0,0-.411-.779l-.483-.115-.6.1A.933.933,0,0,0,134.436,303.835Z" transform="translate(-107.757 -274.942)"/><path class="b" d="M120.611,312.1l.223.083.713-.128a.744.744,0,0,0,.232-.734.915.915,0,0,0-.579-.579,1.2,1.2,0,0,0-1.167.117.7.7,0,0,0-.133.977l.536.145Z" transform="translate(-100.118 -278.818)"/><path class="b" d="M143.6,290.5l-.024,0a.734.734,0,0,1-.075.071c-.107.1-.33.295-.135.513l.236.088a.926.926,0,0,0,.482-.2l.29-.037a.329.329,0,0,0,.008-.451l-.034-.069a.486.486,0,0,1,.027-.108.4.4,0,0,0-.21-.555l-.347.068A.788.788,0,0,0,143.6,290.5Z" transform="translate(-112.366 -267.943)"/><path class="b" d="M112.292,289.653a.371.371,0,0,0,.057.371l.411.05c.041-.031.083-.062.128-.093.263-.189.664-.473.411-.968l-.261-.134a1.136,1.136,0,0,0-.252.035.314.314,0,0,0-.255.238.308.308,0,0,0-.312.294Z" transform="translate(-96.191 -267.488)"/><path class="b" d="M148.682,293.081a.693.693,0,0,0,.6-.051l.116-.2c-.023-.171-.139-.371-.616-.345a.121.121,0,0,1,.03.009l-.383.211A.476.476,0,0,0,148.682,293.081Z" transform="translate(-115.042 -269.365)"/><path class="b" d="M98.721,283.978a.267.267,0,0,0-.046-.316.5.5,0,0,0-.38-.091l-.231.213a.45.45,0,0,0,.119.49.462.462,0,0,0,.383.062l.1-.358a.082.082,0,0,1,.033.057A.344.344,0,0,1,98.721,283.978Z" transform="translate(-88.811 -264.722)"/><path class="b" d="M105.3,304.612l-.16.146q.73.6,1.488,1.182l.037-.011.287-.254.117-.158a.686.686,0,0,0,.065-.405l-.256-.339-.442-.241a1.441,1.441,0,0,0-.637-.115l-.289.08Z" transform="translate(-92.505 -275.576)"/><path class="b" d="M163.178,260.572a.7.7,0,0,0-.477.3.368.368,0,0,0,.063.378l.282.106a.912.912,0,0,0,.76-.494l.056-.088-.392-.283Z" transform="translate(-122.456 -252.711)"/><path class="b" d="M131.3,319.646l-.317-.091-.4,0-.436.124-.3.192-.17.215-.089.3c.023.2.175.863,1.213.887l.495-.12.309-.231-.41-.353-.09-.466Z" transform="translate(-105.234 -283.456)"/><path class="b" d="M190.843,308.266a.51.51,0,0,1,.036.1.108.108,0,0,1,.052-.08l.222.374a.509.509,0,0,0,.417-.244.617.617,0,0,0-.107-.58l-.266-.127a.8.8,0,0,0-.155.025C190.785,307.8,190.718,307.983,190.843,308.266Z" transform="translate(-137.09 -277.288)"/><path class="b" d="M135.208,309.263a.344.344,0,0,0-.27.263c-.012.106.034.265.335.419l.361-.059c.226-.273.132-.444.057-.521A.5.5,0,0,0,135.208,309.263Z" transform="translate(-108.018 -278.088)"/><path class="b" d="M133.587,262.333a.42.42,0,0,0,.239.256.674.674,0,0,0,.549-.041l.118-.256-.081-.176-.338-.129-.326.092Z" transform="translate(-107.315 -253.488)"/><path class="b" d="M127.6,266.449c-.18.126-.263.24-.262.358l.117.2a.5.5,0,0,0,.556-.027c.128-.1.195-.3-.036-.512Z" transform="translate(-104.063 -255.811)"/><path class="b" d="M112.326,293.576l.372.031a.338.338,0,0,0,.152-.433l-.011-.072a.55.55,0,0,1,.061-.1.376.376,0,0,0-.025-.577l-.358-.006C111.831,292.919,112.1,293.358,112.326,293.576Z" transform="translate(-96.119 -269.331)"/><path class="b" d="M150.379,269.92l.252-.01a.316.316,0,0,0,.208-.3c-.018-.228-.422-.427-.682-.33a.3.3,0,0,0-.192.194l.077.131a.116.116,0,0,1,.028-.086l.1.32Z" transform="translate(-115.841 -257.272)"/><path class="b" d="M98.484,298.666l-.314.01q.512.55,1.06,1.076l.054-.178-.144-.468a1.137,1.137,0,0,0-.6-.42Z" transform="translate(-88.878 -272.583)"/><path class="b" d="M102.765,272.326l.257.033c.126-.037.433-.216.443-.442.007-.166-.139-.3-.4-.338l-.3.137a.676.676,0,0,1-.047.085C102.649,271.918,102.5,272.159,102.765,272.326Z" transform="translate(-91.192 -258.482)"/><path class="b" d="M79.507,251.742c.087-.127.085-.329-.21-.486l-.365.06c-.129.162-.17.29-.128.4l.181.171A.469.469,0,0,0,79.507,251.742Z" transform="translate(-78.787 -247.902)"/><path class="b" d="M149.674,359.862h1.534a1.761,1.761,0,0,0-.4-.25,1.254,1.254,0,0,0-.239-1.147,1.719,1.719,0,0,0-1.2-.58l-.4.018-.3.065a1.668,1.668,0,0,0-.307.143c.141.213.286.426.437.636C149.077,359.127,149.37,359.5,149.674,359.862Z" transform="translate(-115.009 -303.411)"/><path class="b" d="M123.688,297.957l-.245.164-.03.116a.484.484,0,0,1-.017.068.528.528,0,0,1-.057.059l-.092.092.1.323.422.162.368-.206a.527.527,0,0,1,.107-.034c.09-.022.256-.062.3-.2.028-.1-.016-.19-.131-.278l-.394.022a.3.3,0,0,1,.2-.018A.649.649,0,0,0,123.688,297.957Z" transform="translate(-101.933 -272.213)"/></g><path class="b" d="M91.772,243.393a36.975,36.975,0,0,1,6.46,2.9c1.021.541,2.077,1.1,3.145,1.6,2.846,1.34,6.989,2.723,10.581,1.706.051.066.1.129.154.2a56.316,56.316,0,0,1,4.517,7.361c1.9,3.489,3.866,7.1,6.932,10.132q.547.541,1.132,1.049c-2.942,1.349-6.483,1.223-9,.859a56.738,56.738,0,0,1-8.252-2.059q-.831-.252-1.662-.5a29.083,29.083,0,0,0-7.306-1.426c-.463-.013-.915,0-1.357.021l.218.522c.385-.019.776-.028,1.176-.017a28.421,28.421,0,0,1,7.1,1.393q.828.246,1.657.5a57.384,57.384,0,0,0,8.37,2.085c2.656.384,6.413.509,9.53-.972a39.094,39.094,0,0,0,8.759,5.29h1.958a37.024,37.024,0,0,1-11.612-7.215c-2.971-2.941-4.905-6.492-6.777-9.927a56.98,56.98,0,0,0-4.587-7.47,33.808,33.808,0,0,0-8.712-7.906l.175-.068a11.191,11.191,0,0,1-1.515-9.563,21.091,21.091,0,0,1,1.236-2.832c.377-.761.768-1.548,1.072-2.354a16.3,16.3,0,0,0,.8-7.447q-.333-.2-.681-.4a16.173,16.173,0,0,1-.733,7.649c-.3.787-.683,1.564-1.055,2.316a21.456,21.456,0,0,0-1.26,2.89,11.524,11.524,0,0,0,1.194,9.333,38.316,38.316,0,0,0-3.553-1.9c-.936-.44-1.909-.851-2.849-1.249a31.7,31.7,0,0,1-6.339-3.251,14.985,14.985,0,0,1-3-2.909c-1.432-2.871-.875-6.435,1.664-10.612.208-.341.421-.681.635-1.022a16.534,16.534,0,0,0,2.475-5.178,8.972,8.972,0,0,0,.151-2.682q-.345-.217-.687-.438a8.711,8.711,0,0,1-.094,2.983,16.233,16.233,0,0,1-2.419,5.039c-.215.342-.43.684-.638,1.027-2.062,3.392-2.849,6.411-2.358,9.014a41.6,41.6,0,0,1-3.025-6.889c-1.243-3.359-2.528-6.832-4.984-9.767a38.987,38.987,0,0,0-8.049-6.619c-1.55-1.061-3.153-2.158-4.6-3.323a31.112,31.112,0,0,1-8.41-10.24c-.083.035-.167.07-.246.109a4.947,4.947,0,0,0-.5.393,32.108,32.108,0,0,0,8.52,10.278c1.481,1.19,3.1,2.3,4.668,3.372a38.235,38.235,0,0,1,7.847,6.437,29.029,29.029,0,0,1,4.574,8.8c-2.476-.15-5.046-1.447-7.844-3.96-.465-.418-.931-.856-1.382-1.28a22.624,22.624,0,0,0-6.056-4.515,17.524,17.524,0,0,0-6.529-1.374l.332.541a16.456,16.456,0,0,1,5.931,1.29,22.1,22.1,0,0,1,5.858,4.385c.454.427.922.867,1.393,1.29,3,2.691,5.777,4.051,8.495,4.158l.071.192c1.624,4.388,3.3,8.926,7.614,12.07a32.586,32.586,0,0,0,6.562,3.378c.931.393,1.892.8,2.808,1.23a34.357,34.357,0,0,1,12.123,9.319c-3.345.892-7.239-.419-9.934-1.688-1.052-.5-2.1-1.05-3.114-1.586a37.563,37.563,0,0,0-6.6-2.961,18.893,18.893,0,0,0-10.2-.253,21.149,21.149,0,0,0-4.455,1.807q.216.212.437.421a20.442,20.442,0,0,1,4.264-1.726A18.133,18.133,0,0,1,91.772,243.393Z" transform="translate(-56.605 -193.026)"/></g></g></g></g><g transform="translate(20.605 0)"><path class="c" d="M115.435,117.384c-5.336-5.259-13.327-5.439-16.728-.376l-.054.082a12.8,12.8,0,0,0-.678,13.145c1.256,2.31,3.3,4.424,3.778,6.861.8,4.13-3.153,6.519-4.99,9.778-1.778,3.154-1.477,7.626.763,11.343,2.093,3.473,5.807,6.52,6.244,10.239.288,2.445-.975,4.466-2.18,6.324-1.917,2.955-3.82,6-4.578,9.6a14.251,14.251,0,0,0,2.326,11.332c2.1,2.845,5.429,4.984,6.763,8.134,1.31,3.094.28,6.171.583,9.315.571,5.934,6.3,11.735,12.347,13.4a15.955,15.955,0,0,0,7.744.21,3.685,3.685,0,0,1,1.69.038,15.866,15.866,0,0,0,7.73.137,10.37,10.37,0,0,0,7.405-12.957c-.878-3.157-3.076-6.306-2.92-9.367.159-3.117,2.71-5.124,3.757-7.9,1.27-3.362.2-7.662-1.922-11.323s-5.185-6.818-8.231-9.885c-1.916-1.929-3.949-4.023-4.58-6.476-.959-3.73,1.638-6.636,2.441-10.043.859-3.647-.522-8.144-3.5-11.4-3.079-3.369-7.968-5.958-8.714-10.085-.441-2.436.83-4.475,1.226-6.749.772-4.425-1.909-9.584-5.634-13.287Z" transform="translate(-95.612 -113.323)"/></g></g><g transform="translate(0 21.607)"><path class="d" d="M370.831,209.5,221.49,209.11c-7.229-.018-12.332-6.121-11.4-13.632L224.476,80.07c.827-6.161,3.1-8.932,10.334-8.914l158.48.389c5.208,0,8.308,3.135,7.667,8.525L387.476,195.933C386.541,203.444,378.061,209.518,370.831,209.5Z" transform="translate(-122.561 -71.156)"/><path class="e" d="M396.4,78.515,241.86,78.16c-6.886-.016-8.636,2.337-9.557,9.18L219.1,197.562c-.921,6.843,3.488,6.266,10.374,6.282l143.752.355c6.887.017,13.27.629,14.192-6.214L400.966,88.579C401.713,84.133,401.49,78.515,396.4,78.515Z" transform="translate(-127.246 -74.802)"/><path class="f" d="M400.788,341.2H217.094c-2.236,0-4.049,1.192-4.049,2.663v5.563c0,1.47,1.813,2.663,4.049,2.663H400.73c2.236,0,3.055-1.192,3.055-2.663v-5.563C403.785,342.393,403.024,341.2,400.788,341.2Z" transform="translate(-124.155 -211.737)"/><path class="d" d="M222.226,341.2H30.854c-2.343,0-3.221,1.192-3.221,2.663v5.563c0,1.47.878,2.663,3.221,2.663H222.226c2.343,0,4.242-1.192,4.242-2.663v-5.563C226.468,342.393,224.569,341.2,222.226,341.2Z" transform="translate(-27.633 -211.737)"/></g><g transform="translate(246.181 66.307)"><path class="c" d="M578.161,238.066c-3.918,6.372-.7,14.5-1.068,21.948H543.065c-.045-.17-.095-.339-.14-.51-2.223-8.467-3.037-17.975,1.516-25.5,2.285-3.774,5.845-6.909,7.021-11.141,2.331-8.385-5.543-17.68-1.72-25.524,1.209-2.482,3.432-4.34,4.961-6.647,3.742-5.647,2.846-12.948,2.656-19.676-.057-2,.075-4.261,1.608-5.584,3.3-2.847,8.446.745,10.392,3.466,3.38,4.726,5.654,11.787,4.836,17.532-.554,3.892-2.52,7.691-1.862,11.567.869,5.118,5.85,8.368,9.439,12.187,4.947,5.264,7.494,13.583,3.6,19.635C583.4,232.892,580.071,234.959,578.161,238.066Z" transform="translate(-541.135 -164.393)"/><path class="g" d="M569.185,267.807c2.207,2.489,4.468,4.919,6.728,7.235a86.667,86.667,0,0,1-.649-9.312l-.044-.051c-2.093-2.435-4.158-4.935-6.314-7.646l.381-.426c2.034,2.558,3.988,4.927,5.96,7.231-.03-3.132.08-6.26.279-9.378-1.79-2.3-3.688-4.8-5.8-7.645l.393-.409c1.986,2.67,3.777,5.034,5.469,7.214.217-3.152.518-6.293.853-9.415q-2.094-2.843-4.164-5.688l-1.4-1.914.4-.407,1.4,1.917q1.922,2.634,3.856,5.268.286-2.614.586-5.21.24-2.1.477-4.206c-2.23-3.04-3.969-5.379-5.628-7.569l.39-.414c1.585,2.092,3.243,4.321,5.329,7.162.342-3.121.657-6.26.892-9.41-2.088-2.709-4.05-5.176-5.994-7.538l.375-.433c1.846,2.243,3.709,4.582,5.679,7.13.217-3.12.35-6.25.348-9.382-2.235-2.639-4.414-5.1-6.656-7.512l.352-.459c2.123,2.285,4.19,4.614,6.3,7.094a79.048,79.048,0,0,0-1.855-16.995l.5-.163a79.828,79.828,0,0,1,1.875,17.208c2.02-2.411,3.832-4.669,5.521-6.883l.389.416c-1.8,2.356-3.731,4.759-5.907,7.343,0,3.1-.129,6.2-.343,9.282,2.231-2.435,4.237-4.681,6.114-6.844l.365.443c-2,2.3-4.138,4.7-6.543,7.314-.231,3.1-.538,6.185-.873,9.253,2.55-2.672,4.557-4.8,6.433-6.809l.351.46c-1.987,2.131-4.117,4.384-6.887,7.285q-.239,2.162-.488,4.312-.282,2.459-.557,4.936,2.59-2.715,5.2-5.431l1.3-1.352.346.465-1.3,1.352q-2.828,2.949-5.644,5.9c-.33,3.069-.628,6.155-.846,9.251q1.355-1.483,2.844-3.083a5.724,5.724,0,0,0,.251.567c-1.111,1.2-2.159,2.334-3.159,3.43-.2,3.088-.314,6.185-.292,9.285.946-1.133,1.929-2.287,2.959-3.476a6.023,6.023,0,0,0,.279.544c-1.128,1.3-2.2,2.564-3.227,3.8a86.575,86.575,0,0,0,.628,9.347q1.012-1.411,2.112-2.87.171.232.363.448-1.238,1.643-2.367,3.228c.05.373.094.746.151,1.119h-.534c-.036-.241-.063-.482-.1-.723l-.088-.089c-2.393-2.44-4.791-5.013-7.128-7.649Z" transform="translate(-555.549 -181.094)"/></g><g transform="translate(220.375 118.211)"><g transform="translate(21.601 16.558)"><path class="h" d="M546,321c.086,2.771.477,5.894-1.088,7.988-1.829,2.445-5.3,2.085-7.668,3.842a5.467,5.467,0,0,0-1.4,1.523h-3.486c.324-2.606,1.389-5.234,2.608-6.346,1.158-1.057,2.676-1.569,3.716-2.774,1.862-2.157,1.583-5.656,2.346-8.564,1.211-4.615,5.075-7.625,8.977-9.476C547.077,310.854,545.845,316.008,546,321Z" transform="translate(-532.361 -307.194)"/></g><path class="i" d="M531.814,311.918a15.716,15.716,0,0,0-2.284,4.456h-4.468c-.116-1.383-.214-2.577-.276-3.411-.4-5.362-.664-11.233,2.467-15.577,1.753-2.432,4.421-4.123,5.923-6.72a14.231,14.231,0,0,0,1.593-6.721,24.544,24.544,0,0,0-.551-6.175c-.322-1.42-.9-3.4-1.329-5.113a38.261,38.261,0,0,1,6.683,12.045c1.771,5.174,2.138,11,.1,16.071C537.961,305.019,534.737,308.416,531.814,311.918Z" transform="translate(-506.694 -272.657)"/><g transform="translate(9.673 4.872)"><path class="c" d="M521.626,321.665h-5.12c-.688-4.752-2.893-9.282-5.18-13.558-1.991-3.723-4.136-7.683-3.812-11.9.426-5.549,4.919-9.765,9.1-13.384-2.2,3.817-1.493,8.693.124,12.8s4.061,7.871,5.305,12.107a22.984,22.984,0,0,1,.007,12.606C521.923,320.776,521.779,321.222,521.626,321.665Z" transform="translate(-507.482 -282.819)"/></g><path class="b" d="M504.812,335.75a5.989,5.989,0,0,0-.615-.4c-2.885-1.635-6.886-1.008-9.208-3.392-1.986-2.04-1.787-5.288-1.912-8.15-.226-5.156-2.076-10.375-5.773-13.93,4.677,1.618,9.4,4.434,11.184,9.1,1.122,2.94,1.083,6.566,3.419,8.651,1.3,1.165,3.106,1.581,4.536,2.584a10.781,10.781,0,0,1,3.339,5.54Z" transform="translate(-487.305 -292.033)"/></g><g transform="translate(123.632)"><path class="j" d="M341.679,81.343s3.972-8.9,9.513-8.656V85.381l-7.141,1.3Z" transform="translate(-314.752 -50.343)"/><path class="j" d="M317.915,93.538c-.5,1.283-.916,2.544-1.423,3.839-4.726,12.064-9.612,24.538-12.825,36.059l-.64,2.3a1.17,1.17,0,0,0,1.463,1.445c2.909-.835,8.026-2.293,9.045-2.509l2.8,16.406c-22.788,5.083-33.293,7.979-30.337-3.312,5.735-21.947,15.92-37.924,24.174-52.957.754-1.373,1.561-2.763,2.265-4.055C314,92.469,315.151,93.065,317.915,93.538Z" transform="translate(-285.513 -59.748)"/><g transform="translate(31.728 24.356)"><ellipse class="a" cx="5.39" cy="7.686" rx="5.39" ry="7.686"/><ellipse class="k" cx="5.39" cy="7.686" rx="5.39" ry="7.686" transform="translate(2.183)"/></g><g transform="translate(38.989)"><path class="l" d="M438.135,41.3c.432,2.069.454,4.29,1.448,6.136.853,1.578,2.333,2.708,3.309,4.21s1.286,3.783-.1,5c-.657.577-1.563.788-2.219,1.363-1.846,1.62-.61,4.518-.343,6.919a7.96,7.96,0,0,1-3.218,7.152c-1.6,1.152-3.8,1.9-4.365,3.788-.441,1.488.358,3.224-.474,4.543-1.222,1.936-4.331.859-6.254,2.086-1.354.865-1.764,2.618-2.523,4.037a7.985,7.985,0,0,1-7.378,4.141c-1.565-.114-3.129-.721-4.665-.322-1.982.516-3.419,2.6-5.446,2.8-4.214.412-4.395-4.6-6.743-7.6-2.954-3.788-9.732-4.38-10.561-9.177-.2-1.123-.022-2.411-.73-3.288s-2.081-.99-2.892-1.8c-1.521-1.511-.326-4.353-.78-6.375a14.089,14.089,0,0,0-.677-1.33c-5.457-11.52-4.6-24.136,3.184-31.064,6.452-5.74,16.12-6.194,25.291-2.195.1-.065.161-.146.261-.209a10.024,10.024,0,0,1,7.724-1c4.91,1.055,5.74,5.84,9.7,7.312,1.516.561,3.272-.21,4.849.151C436.579,37.04,437.7,39.232,438.135,41.3Z" transform="translate(-373.708 -26.925)"/><path class="l" d="M383.817,60.8c2.731-1.05,7.721-1.413,9.858-2.352a18.372,18.372,0,0,0,4.133-2.3,7.532,7.532,0,0,0,2.182-2.958c-.01.019-.461-2.007-.062-.5a12.8,12.8,0,0,1,.733-9.2,11.637,11.637,0,0,0-1.372-6.032c-2.8-5.564-5.2-5.685-7.558-7.492-2.315-1.774-2.273-1.459-5.482-2.936a11.03,11.03,0,0,0-8.97.018,20.771,20.771,0,0,0-2.27,1.352c-.662.528-1.276,1.115-1.905,1.683-.859.209-4.076,1.2-5.006,3.154-1.823,3.831-1.13,5.884-1.13,5.884,2.116.274,4.764-1.911,6.4-1.044a5.845,5.845,0,0,1,1.387,1.1c1.992,2.233,3.642,4.059,3.59,7.283-.043,2.643-1.79,5.372-.546,7.77,1.112,2.143,4.136,2.908,5.421,4.968A4.689,4.689,0,0,1,383.817,60.8Z" transform="translate(-366.838 -26.086)"/></g><path class="j" d="M328.194,250.615c.023,0,.046,0,.069,0,.172-.022.45-.088.382-.24a7.243,7.243,0,0,0-1.661-2.459c-.471-.443-.19-1.2.484-1.06a12.309,12.309,0,0,1,4.161,1.7c2.3,1.471,1.6,1.074,4.813,3.963,2.2,1.974.923,3.411-.611,4.534-2.958,2.168-10.758,3.316-13.967,1.483a11.449,11.449,0,0,1-4.152-5.607,3.826,3.826,0,0,1,.272-2.154,2.849,2.849,0,0,1,3.366-1.795Z" transform="translate(-302.238 -141.007)"/><g transform="translate(22.303 63.695)"><path class="a" d="M357.756,188.3l-20.6,4.881a3.953,3.953,0,0,1-5.114-4.15l.7-17.018c.111-2.694,1.229-3.387,3.884-4.007,9.721-2.272,30.33-9.059,30.33-9.059l1.818,14.142C369.615,179.621,364.486,186.7,357.756,188.3Z" transform="translate(-332.035 -158.944)"/></g><path class="a" d="M371.511,233.508c-.086,3.978-.238,7.368-.432,10.3H429.1c-4.617-6.476-9.1-12.581-9.479-23.709-.394-11.576,2.6-16.578,3.685-26.972,0,.006,3.867-21.324-10.573-30.643L409.67,160.5c-8.89-5.464-21.612-10.27-33.819,1.082a23.941,23.941,0,0,0-6.924,11.912c-.495,2.034-.9,4.073-1.26,5.813a.356.356,0,0,0-.022.091,17.647,17.647,0,0,0-.3,1.976q-.062.693-.085,1.392l.056.043C367.1,195.03,372.022,210.012,371.511,233.508Z" transform="translate(-328.067 -93.02)"/><path class="j" d="M406.118,157.867a12.208,12.208,0,0,1,8.632,2.522c1.729,1.269,1.694,3.682-.086,5.283q-4.141,3.725-8.156,7.555c-1.554,1.482-4.136,1.3-4.956-.356-3.224-6.511-2.345-4.564-4.03-8.708C396.133,160.748,402.475,158.275,406.118,157.867Z" transform="translate(-343.721 -94.653)"/><g transform="translate(32.775 2.475)"><path class="m" d="M381.731,71.345c2.819-2.13,8.483-4.22,10.65-6.022a22.238,22.238,0,0,0,4.03-4.046,9.115,9.115,0,0,0,1.551-4.158c0,.025-1.2-2.174-.237-.562a15.428,15.428,0,0,1-2.191-10.911,14,14,0,0,0-3.584-6.534c-5.082-5.513-7.906-4.851-11.237-6.158-3.27-1.283-3.117-.932-7.325-1.572a15.4,15.4,0,0,0-8.753,1.5,8.336,8.336,0,0,0-3.317,3.077c-.176.282-.353.554-.506.769-.092.129-.182.259-.27.391a16.278,16.278,0,0,1-3.265,3.506,8.2,8.2,0,0,0-2.877,4.02c-1.478,6.1.635,10.094.635,10.094,2.544-.39,4.891-6.7,7.073-6.245a7.018,7.018,0,0,1,1.97.806c3.047,1.923,5.563,3.488,6.568,7.242.824,3.077-.3,6.826,1.935,9.189,2,2.112,5.755,1.989,7.925,3.947A5.63,5.63,0,0,1,381.731,71.345Z" transform="translate(-353.878 -31.248)"/></g><g transform="translate(33.608 7.659)"><path class="n" d="M368.6,63.508l16.095-.253a1.321,1.321,0,0,0,1.292-1.34l-.134-8.626a2.607,2.607,0,0,0-2.633-2.567l-14.815.233a6.278,6.278,0,0,0,.2,12.554Z" transform="translate(-359.075 -46.57)"/><path class="o" d="M416.06,89.326a16.956,16.956,0,0,1-3.143,5.851c-.013.014-.009.072-.021.059a11.937,11.937,0,0,1-3.468-8.212,5.821,5.821,0,0,0,1.654-4.618c-.052-2.741-1.36-4.935-2.921-4.9a1.223,1.223,0,0,0-.332.126l10.364-9.666C419.5,72.788,419.263,79.614,416.06,89.326Z" transform="translate(-382.797 -55.547)"/><g transform="translate(0.263 5.489)"><path class="j" d="M361.575,53.511a14.664,14.664,0,0,0-5.408,11.608l.241,11.842a14.677,14.677,0,1,0,29.347-.605L385.522,64.9Z" transform="translate(-356.164 -53.511)"/></g><g transform="translate(16.627 28.779)"><path class="j" d="M410.569,134.484l-8.065,2.751c-1.109.378-2.414-.492-2.9-1.934l-9.122-27.06c-.486-1.442.023-2.932,1.132-3.31l8.065-2.751c1.109-.378,2.414.492,2.9,1.935l9.123,27.06C412.188,132.615,411.678,134.1,410.569,134.484Z" transform="translate(-390.297 -102.09)"/></g><path class="o" d="M383.976,74.472l3.569-.056a.954.954,0,0,1,.03,1.907l-3.569.056a.954.954,0,0,1-.03-1.907Z" transform="translate(-369.893 -58.904)"/><path class="o" d="M356.336,74.915l2.771-.044a.986.986,0,0,1,.03,1.907l-2.771.044a.986.986,0,0,1-.03-1.907Z" transform="translate(-355.615 -59.141)"/><path class="p" d="M368.145,98.322l.112-.321a1.836,1.836,0,0,0,1.18,1.57l1.6.5a1.15,1.15,0,0,0,1.332-.611l.036.181c.216,1.089-.631,2.052-1.555,1.766l-1.6-.5A2.006,2.006,0,0,1,368.145,98.322Z" transform="translate(-362.074 -71.183)"/><g transform="translate(13.945 19.994)"><path class="o" d="M386.315,85.432c.014.911.5,1.642,1.092,1.633s1.055-.755,1.04-1.666-.5-1.642-1.092-1.633S386.3,84.521,386.315,85.432Z" transform="translate(-385.542 -83.766)"/><path class="o" d="M386.516,83.766l-1.813.028,1.135,1.107Z" transform="translate(-384.703 -83.766)"/></g><g transform="translate(1.13 20.195)"><path class="o" d="M359.584,85.852c.014.911.5,1.642,1.092,1.633s1.055-.756,1.04-1.667-.5-1.642-1.092-1.633S359.569,84.941,359.584,85.852Z" transform="translate(-358.81 -84.186)"/><path class="o" d="M359.785,84.186l-1.814.029,1.135,1.107Z" transform="translate(-357.971 -84.186)"/></g><g transform="translate(25.412 22.158)"><path class="j" d="M412.669,88.281c2.292-.047,4.2,2.166,4.252,4.943s-1.755,5.067-4.047,5.114-4.2-2.166-4.252-4.943S410.377,88.328,412.669,88.281Z" transform="translate(-408.62 -88.28)"/></g><path class="l" d="M392.874,53.393c-1.711-3.4-2.262-7.722-5.344-9.908-1.907-1.353-4.384-1.538-6.7-1.373a53.43,53.43,0,0,0-8.258,1.467l-5.951,1.382a1.471,1.471,0,0,0-.644.264,1.525,1.525,0,0,0-.381.681c-.338.966-1.672,3.314-1.4,4.309.31,1.116,1.72,1.131,2.656,1.178a22.4,22.4,0,0,1,17.468,9.18c1.781,2.63,2.763,5.76,4.607,8.345a14.709,14.709,0,0,0,4.5,4.13c.074.043.155.078.23.119l4.933-12.246C396.58,58.49,394.291,56.214,392.874,53.393Z" transform="translate(-360.063 -42.061)"/><g transform="translate(8.949 32.859)"><path class="a" d="M380.013,110.6c-.112,1.009-.208,2.015-2.384,2.347,0,0-3.638.582-3.328-1.8Z" transform="translate(-374.282 -110.601)"/></g></g><g transform="translate(60.723 24.171)"><ellipse class="a" cx="5.39" cy="7.686" rx="5.39" ry="7.686"/><rect class="q" width="2.586" height="1.022" transform="translate(5.012 0.012)"/><rect class="q" width="2.151" height="1.022" transform="translate(5.342 14.348)"/><ellipse class="g" cx="5.39" cy="7.686" rx="5.39" ry="7.686" transform="translate(2.183)"/></g><g transform="translate(44.779 2.686)"><path class="r" d="M402.11,55.232a.479.479,0,0,1-.479-.457c-.338-7.268-2.653-12.888-6.876-16.7-6.449-5.826-15.247-5.416-15.334-5.411a.479.479,0,0,1-.054-.957c.376-.02,9.271-.443,16.023,5.649,4.426,3.994,6.848,9.841,7.2,17.379a.479.479,0,0,1-.456.5Z" transform="translate(-378.915 -31.689)"/></g><g transform="translate(52.452 37.028)"><path class="r" d="M395.161,113.647a.24.24,0,0,1-.009-.479c13.043-.453,14.716-9.554,14.732-9.646a.24.24,0,1,1,.473.079c-.016.1-1.758,9.58-15.187,10.046Z" transform="translate(-394.921 -103.321)"/></g><rect class="q" width="2.37" height="1.362" rx="0.681" transform="translate(51.491 46.464)"/><path class="j" d="M350.386,251.258c1.213.38,3.24.989,4.465,1.374,11.4,3.586,23.2,7.295,34.233,9.389l2.2.418a1.467,1.467,0,0,0,1.591-1.646c-.5-2.888-1.377-7.973-1.479-8.992l16.533-4.565c2.5,22.784,3.39,32.212-7.447,30.356-21.066-3.6-34.925-11.345-48.874-18.233-1.274-.629-2.559-1.31-3.759-1.9C349.723,255.69,349.613,254.134,350.386,251.258Z" transform="translate(-317.964 -141.213)"/><g transform="translate(66.692 77.948)"><path class="a" d="M452.629,198.673l2.543,20.57a5.04,5.04,0,0,1-4.67,5.661l-16.749,1.04c-2.651.165-3.213-.907-3.532-3.559-1.169-9.709-5.6-30.089-5.6-30.089l14.185-3.322A11.342,11.342,0,0,1,452.629,198.673Z" transform="translate(-424.624 -188.674)"/><g transform="translate(0.164 6.767)"><path class="q" d="M432.446,233.871a3.063,3.063,0,0,1-2.107-2.344l-5.364-28.106a.529.529,0,1,1,1.039-.2l5.364,28.106a1.983,1.983,0,0,0,2.151,1.6l5.194-.551a.533.533,0,0,1,.11,1.06l-5.194.551A2.982,2.982,0,0,1,432.446,233.871Z" transform="translate(-424.966 -202.789)"/></g></g></g><g transform="translate(245.317 32.233)"><path class="a" d="M549.695,114.235a10.458,10.458,0,1,1,10.363-10.458A10.422,10.422,0,0,1,549.695,114.235Zm0-20.727a10.27,10.27,0,1,0,10.177,10.269A10.235,10.235,0,0,0,549.695,93.508Z" transform="translate(-539.332 -93.32)"/><g transform="translate(4.04 5.588)"><path class="a" d="M550.432,108.288a5.333,5.333,0,0,0-2.576,5.645,1.163,1.163,0,0,0,1.714.784l2.354-1.333a.784.784,0,0,0,.3-1.062l-.8-1.433a.719.719,0,0,1,.271-.975l4.116-2.331a.706.706,0,0,1,.966.274l.8,1.432a.769.769,0,0,0,1.052.3l2.353-1.333a1.182,1.182,0,0,0,.23-1.885,5.23,5.23,0,0,0-6.117-.722Z" transform="translate(-547.759 -104.977)"/></g></g><g transform="translate(249.571 59.328)"><g transform="translate(8.956)"><path class="a" d="M568.788,150.362a.22.22,0,0,1-.232-.265.343.343,0,0,1,.334-.26.221.221,0,0,1,.232.265A.345.345,0,0,1,568.788,150.362Z" transform="translate(-567.753 -149.837)"/><path class="a" d="M568.233,153.2a.22.22,0,0,1-.232-.265.345.345,0,0,1,.334-.26.22.22,0,0,1,.232.265A.345.345,0,0,1,568.233,153.2Z" transform="translate(-567.464 -151.316)"/><path class="a" d="M567.678,156.044a.22.22,0,0,1-.232-.265.345.345,0,0,1,.334-.26.221.221,0,0,1,.232.265A.344.344,0,0,1,567.678,156.044Z" transform="translate(-567.175 -152.795)"/><path class="a" d="M567.123,158.885a.221.221,0,0,1-.232-.265.346.346,0,0,1,.334-.26.221.221,0,0,1,.232.265A.345.345,0,0,1,567.123,158.885Z" transform="translate(-566.887 -154.274)"/></g><path class="a" d="M559.219,150.043l-4.5-.037-.128.657,4.5.037Z" transform="translate(-551.529 -149.925)"/><path class="a" d="M558.7,152.721l-4.5-.037-.128.657,4.5.037Z" transform="translate(-551.257 -151.319)"/><path class="a" d="M555.143,158.055,548.334,158l-.128.657,6.809.056Z" transform="translate(-548.206 -154.086)"/><path class="a" d="M549.9,149.967l-.128.657,1.6.013.128-.657Z" transform="translate(-549.022 -149.905)"/><path class="a" d="M549.379,152.645l-.128.657,1.6.013.128-.657Z" transform="translate(-548.75 -151.299)"/></g><g transform="translate(61.379 63.657)"><g transform="translate(31.877 59.74)"><path class="s" d="M226.8,312.505a.44.44,0,0,1-.435-.375l-4.206-28.15a.44.44,0,0,1,.871-.13L227.235,312a.443.443,0,0,1-.436.505Z" transform="translate(-222.153 -283.475)"/></g><path class="n" d="M215.873,235.934c-.578-2.218-2.049-6.714-2.049-6.714l-4.166,1.618a50.77,50.77,0,0,0,3.276,8.938c.14.254,1.456,1.82,2.993.971,3.879-1.533,8.3-3.805,12.075-5.621l.218-1.308c-3.852.657-7.428,2.107-11.079,3.006A1.243,1.243,0,0,1,215.873,235.934Z" transform="translate(-183.771 -195.491)"/><g transform="translate(14.726 0.023)"><path class="n" d="M189.092,184.6c-.355.02-.937-.078-1.062.3-.113.345-.02,1.1-.091,1.523a7.042,7.042,0,0,1-.348,1.554c-.032.081-1.056,4.089-1.026,4.174s2.209.518,2.29.564c1.039.591.677.15,1.754-.227.275-.1.478.023.589-.242a37.293,37.293,0,0,0,.993-5.547,9.892,9.892,0,0,1,.238-2.288C192.427,184.4,189.35,184.587,189.092,184.6Z" transform="translate(-186.475 -172.188)"/><g transform="translate(1.765 1.959)"><path class="n" d="M197.535,170.746A25.371,25.371,0,0,0,198,166.8c.005-.243-.01-.479,0-.707L192.181,163a4.022,4.022,0,0,0-1.825,3.159l-.282,3.584a5.185,5.185,0,0,0,.47,2.566c.018.089.057.3.09.592l1.481.913a.662.662,0,0,1,.272-.464.8.8,0,0,1,.8.062c.252.143.466.354.711.512a1.949,1.949,0,0,0,1.28.306,2.368,2.368,0,0,0,1.7-1.3A7.211,7.211,0,0,0,197.535,170.746Z" transform="translate(-190.059 -163)"/><g transform="translate(2.032 3.092)"><path class="n" d="M194.356,185.954l1.857.721.017-.177a.33.33,0,0,1,.315-.3,4.128,4.128,0,0,0,1.966-.648,3.234,3.234,0,0,1-.569.081,3.888,3.888,0,0,1-2.131-.559,4.421,4.421,0,0,1-.864-.644.575.575,0,0,0-.353.078c-.312.2-.319.669-.281,1.063C194.325,185.7,194.342,185.825,194.356,185.954Z" transform="translate(-194.297 -177.245)"/><path class="n" d="M201.054,174.761l.22-5.118-.366-.194c-.007.228.008.465,0,.707a25.37,25.37,0,0,1-.464,3.947,7.21,7.21,0,0,1-.652,2.189,2.367,2.367,0,0,1-1.7,1.3,1.949,1.949,0,0,1-1.28-.306c-.245-.158-.458-.369-.711-.512a1.06,1.06,0,0,0-.448-.14,4.419,4.419,0,0,0,.864.644,3.888,3.888,0,0,0,2.131.559,3.234,3.234,0,0,0,.569-.081A3.911,3.911,0,0,0,201.054,174.761Z" transform="translate(-195.003 -169.449)"/></g></g><path class="m" d="M196.954,161.771c-.33-.818-1.4-.932-2.195-1.248-1.244-.495-.768-.383-1.391-.993a5.832,5.832,0,0,0-2-.617c-.062.093.351.372.271.457-.176.185.08.315-.2.444a6.648,6.648,0,0,0-3.1,3.078,1.519,1.519,0,0,1,.14.293.728.728,0,0,1-.279.825.649.649,0,0,1-.426.082c-.5,1.188-.891,2.468-1.383,3.705a2.7,2.7,0,0,1,.174.688c.094,1.02-.931,2.318.953,2.818,1.523.4,1.123.581,1.68.938a.831.831,0,0,0,.459.127,4.612,4.612,0,0,0,4.184-2.829,10.361,10.361,0,0,0,1.559-1.888c.023.077.056.14.118.137.234-.013.271-.951.312-1.188.107-.627.847-1.4,1.076-1.98A4.353,4.353,0,0,0,196.954,161.771Zm-9.525,7.565a3.162,3.162,0,0,0,.607.666A2.226,2.226,0,0,1,187.429,169.336Z" transform="translate(-186.379 -158.913)"/><g transform="translate(7.226 8.042)"><path class="n" d="M201.722,177.239c.022-.821.5-1.41,1.074-1.316a.838.838,0,0,1,.3.121.974.974,0,0,0-.57-.347c-.572-.094-1.053.495-1.074,1.316a1.762,1.762,0,0,0,.7,1.535A1.962,1.962,0,0,1,201.722,177.239Z" transform="translate(-201.451 -175.687)"/><path class="n" d="M202.741,178.915c.571.094,1.052-.5,1.074-1.316a1.963,1.963,0,0,0-.426-1.309.839.839,0,0,0-.3-.121c-.572-.094-1.052.495-1.074,1.316a1.962,1.962,0,0,0,.426,1.309A.844.844,0,0,0,202.741,178.915Z" transform="translate(-201.745 -175.933)"/></g></g><path class="n" d="M228.15,323.4l-1.2,6.335,2.918.848,1.727-7.3Z" transform="translate(-192.775 -244.46)"/><path class="t" d="M194.119,267.739H174.5l.2-.784-1.6-10.348.842.238c1.324.373,5.038-.025,6.375-.251l-.013-.063.61-.082c5.432-.723,18.986-1.994,27.468,1.84l-.177.557.218-.539a6.335,6.335,0,0,1,3.535,7.379c-1.013,4.106-2.982,12.418-4.8,21.95a1.635,1.635,0,0,1-1.544,1.359l-4.808.146h-.048a1.6,1.6,0,0,1-1.179-.526,1.711,1.711,0,0,1-.438-1.286c.439-5.621,1.48-11.482,2.317-16.191q.15-.846.292-1.652a1.5,1.5,0,0,0-1.374-1.757A50.572,50.572,0,0,0,194.119,267.739Z" transform="translate(-164.738 -209.252)"/><path class="u" d="M174.11,199.543s4.943-8.02,15.312-1.3a5.775,5.775,0,0,1,1.28,1.26c.527.728-.019,1.643.092,2.672a40.042,40.042,0,0,1-.474,6.541c-.7,3.82-.331,6.827-.327,10.276-.017,1.821.822,5.862.939,7.769a6.725,6.725,0,0,1-.872,2.578,14.316,14.316,0,0,1-6.88,2.563c-3.506.317-3.9-2.093-10.368-1.818a1.556,1.556,0,0,1-1.6-1.417c-.775-7.786.8-12.457,1.767-23.952A9.376,9.376,0,0,1,174.11,199.543Z" transform="translate(-163.649 -177.967)"/><g transform="translate(21.149 19.799)"><path class="u" d="M204.49,200.841c1.311,1.567,1.17.661,1.884,2.576,1.361,3.65,3.912,8.144,3.8,10.061-.08,1.357-3.034,3.079-4.73,3.249a.958.958,0,0,1-.973-.583c-.2-.476-.5-1.163-.675-1.567-.077-.174-.153-.351-.231-.517-1.136-2.439-2.192-4.926-3.407-7.325-.961-1.9.035-4.321,1.467-5.93a1.892,1.892,0,0,1,2.867.037Z" transform="translate(-199.777 -200.165)"/></g><g transform="translate(21.495 26.267)"><path class="v" d="M205.832,223.968a1.106,1.106,0,0,1-1.01-.686c-.2-.476-.5-1.16-.673-1.563l-.045-.1c-.061-.14-.123-.28-.185-.413-.385-.827-.761-1.66-1.138-2.493-.721-1.6-1.466-3.245-2.267-4.828a.157.157,0,0,1,.281-.142c.8,1.589,1.551,3.242,2.273,4.841.376.832.751,1.664,1.136,2.49.063.134.126.277.188.419l.045.1c.177.4.471,1.09.675,1.566a.792.792,0,0,0,.789.492c1.718-.156,4.541-1.879,4.613-3.1a.157.157,0,1,1,.314.018c-.088,1.5-3.164,3.24-4.9,3.4A.929.929,0,0,1,205.832,223.968Z" transform="translate(-200.498 -213.655)"/></g><path class="n" d="M190.925,323.99l-1.2,6.335,2.933.235,1.713-6.687Z" transform="translate(-173.396 -244.765)"/><path class="o" d="M225.914,336.771a42.553,42.553,0,0,1,6.449,1.76c1.457.471.944,1.915-.689,1.938l-6.217.089c-.3,0-.526-.169-.476-.362l.862-3.316A.272.272,0,0,1,225.914,336.771Z" transform="translate(-191.744 -251.48)"/><path class="o" d="M189.178,336.549a42.491,42.491,0,0,1,6.449,1.76c1.458.471.944,1.915-.689,1.938l-6.217.089c-.3,0-.526-.17-.476-.362l.862-3.316A.269.269,0,0,1,189.178,336.549Z" transform="translate(-172.62 -251.365)"/><path class="t" d="M198.323,270.458l-1.072.511c-.182,1.916-1.132,4.3-2.365,8.3-1.373,4.454-3.08,10-4.173,15.381a2,2,0,0,0,.45,1.711,2.122,2.122,0,0,0,1.616.735h.034l3.966-.06a2.1,2.1,0,0,0,1.975-1.435c2.246-6.915,4.147-11.821,5.675-15.764a73.143,73.143,0,0,0,2.792-7.959l.133-.534Z" transform="translate(-173.888 -216.959)"/><g transform="translate(0 24.029)"><path class="g" d="M162.949,231.578h16.634a2.643,2.643,0,0,0,2.625-2.947L180.3,212.175a3.546,3.546,0,0,0-3.291-3.187H161.165a2.681,2.681,0,0,0-2.55,3.187l2.014,17.338A2.335,2.335,0,0,0,162.949,231.578Z" transform="translate(-157.187 -208.988)"/><path class="w" d="M160.694,231.578h16.191a2.437,2.437,0,0,0,2.42-2.718l-1.939-16.686a3.546,3.546,0,0,0-3.29-3.187H158.235a2.681,2.681,0,0,0-2.55,3.187l1.936,16.667A3.093,3.093,0,0,0,160.694,231.578Z" transform="translate(-155.662 -208.988)"/></g><path class="n" d="M244.908,238.5a3.214,3.214,0,0,1,1.063-.372,2.756,2.756,0,0,1,.767.071l1.346.255a6.7,6.7,0,0,1,.663.149.192.192,0,0,1,.124.077.188.188,0,0,1-.035.2.349.349,0,0,1-.175.106,1.3,1.3,0,0,1-.534.011l-.781-.1a.822.822,0,0,0-.518.052.107.107,0,0,0-.046.042c-.031.063.05.1.112.107l1.573.068a1.3,1.3,0,0,0,.252-.006,1.843,1.843,0,0,0,.688-.36c.119-.081.29-.149.365-.036.058.087.01.222-.053.321a2.274,2.274,0,0,1-.34.395q-.589.58-1.216,1.109a1.834,1.834,0,0,1-.424.293,1.112,1.112,0,0,1-.9-.042c-.277-.121-.524-.3-.794-.44a1.227,1.227,0,0,0-.888-.134c-.37.106-.905.209-1.13-.451-.162-.477.124-.833.56-1.106Z" transform="translate(-201.64 -200.123)"/><path class="m" d="M189.146,158.866s-10.421.761-5.906,11.04C183.24,169.906,195.47,161.566,189.146,158.866Z" transform="translate(-169.428 -158.866)"/><path class="l" d="M166.966,189.776c.736-.661,1.734-1.181,1.977-2.14a7.149,7.149,0,0,0-.136-2.1,3.775,3.775,0,0,1,1.058-2.7,6.128,6.128,0,0,1,2.517-1.551,4.486,4.486,0,0,0,1.112-.471,4.332,4.332,0,0,0,.864-.932c.809-1.02,3.284-2.269,3.772-.2.391,1.66-1.575,2.464-2.059,3.765a2.469,2.469,0,0,0,.285,2.048,8.807,8.807,0,0,0,1.373,1.64,8.072,8.072,0,0,1,2.571,4.519,8.84,8.84,0,0,1-.915,4.132,5.6,5.6,0,0,1-2.159,2.854,6.116,6.116,0,0,1-2.9,1.154,10.169,10.169,0,0,1-6.156-1.508,6.059,6.059,0,0,1-2.778-5.458A4.878,4.878,0,0,1,166.966,189.776Z" transform="translate(-160.713 -169.118)"/><path class="g" d="M170.542,281.623a.942.942,0,0,0,.941.942H197.17a.942.942,0,1,0,0-1.883H171.483A.941.941,0,0,0,170.542,281.623Z" transform="translate(-163.408 -222.281)"/><g transform="translate(3.889 60.064)"><path class="s" d="M164.214,313.181a.506.506,0,0,1-.066,0,.44.44,0,0,1-.37-.5l4.206-28.15a.44.44,0,1,1,.871.13l-4.206,28.15A.44.44,0,0,1,164.214,313.181Z" transform="translate(-163.774 -284.151)"/></g><g transform="translate(16.778 59.739)"><path class="s" d="M191.1,312.5a.443.443,0,0,1-.436-.505l4.206-28.15a.44.44,0,0,1,.871.13l-4.206,28.15A.44.44,0,0,1,191.1,312.5Z" transform="translate(-190.658 -283.474)"/></g><g transform="translate(5.447 43.716)"><path class="s" d="M169.652,265.051a.314.314,0,0,1-.31-.265l-2.313-14.369a.314.314,0,0,1,.621-.1l2.313,14.37a.313.313,0,0,1-.26.36A.256.256,0,0,1,169.652,265.051Z" transform="translate(-167.024 -250.052)"/></g><g transform="translate(21.464 43.554)"><path class="s" d="M203.059,264.713a.315.315,0,0,1-.31-.265l-2.313-14.37a.314.314,0,0,1,.621-.1l2.313,14.37a.313.313,0,0,1-.26.36A.253.253,0,0,1,203.059,264.713Z" transform="translate(-200.432 -249.714)"/></g></g><g transform="translate(79.469 23.369)"><path class="x" d="M237.917,75.9c4.167.782,8.487,2.124,11.307,5.289a14.53,14.53,0,0,1,3.329,9.781,29.922,29.922,0,0,1-2.259,10.267,64.651,64.651,0,0,1-5.375,10.95,17.484,17.484,0,0,1-4.554,5.357c-4.119,2.9-9.705,2.32-14.587,1.084a69.085,69.085,0,0,1-17.9-7.328c-3.09-1.807-6.127-3.946-8-7-1.681-2.738-2.287-5.981-2.862-9.142-.737-4.056-1.156-9.046,1.236-12.71,1.962-3,6.275-3.92,9.512-4.9A64.07,64.07,0,0,1,237.917,75.9Z" transform="translate(-194.978 -74.831)"/><circle class="y" cx="1.798" cy="1.798" r="1.798" transform="translate(0 32.361)"/><g transform="translate(15.376 5.299)"><path class="o" d="M252.568,100.183c-.174-.134-.355-.259-.542-.377a4.785,4.785,0,0,0-.244-.683,7.1,7.1,0,0,0,.171-4.192,6.79,6.79,0,0,0-4.058-4.513,5.461,5.461,0,0,0-1.349-.305,9.284,9.284,0,0,0-1.658-1.98,9.892,9.892,0,0,0-11.389-.844,9.057,9.057,0,0,0-2.325,1.941,6.866,6.866,0,0,0-.8,1.139,1.99,1.99,0,0,0-1.143.911,2.906,2.906,0,0,0-.123,2.414c-.03.01-.06.017-.09.027a4.993,4.993,0,0,0-2.833,2.049,2.908,2.908,0,0,0,.051,3.2c.047.062.1.118.152.176l.312.315a5.114,5.114,0,0,0,1.293.813,4.562,4.562,0,0,0-.931,3.767,4.171,4.171,0,0,0-1.1.941,1.752,1.752,0,0,0,.39,2.752,8.227,8.227,0,0,0,1.642.843c.251.105.507.2.764.293a1.736,1.736,0,0,0-.065.4,3.711,3.711,0,0,0,1.292,2.637,8.875,8.875,0,0,0,2.934,1.888,8.715,8.715,0,0,0,6.282.065,5.986,5.986,0,0,0,3.649.937,11.466,11.466,0,0,0,3.264-.582,13.225,13.225,0,0,0,5.458-3.537,13.025,13.025,0,0,0,2.97-5.038,4.512,4.512,0,0,0,.162-.859,4.9,4.9,0,0,0-.949-3.413,6.037,6.037,0,0,0-.939-.988Zm-.208.236-.185.225q-.018-.2-.052-.4Q252.244,100.331,252.36,100.419Zm-.488.533a1.405,1.405,0,0,1-.9.293c-.039-.067-.075-.135-.116-.2a8.94,8.94,0,0,0,.638-1.188c.084.047.167.1.25.147A4.431,4.431,0,0,1,251.872,100.952Zm-22.786-1.489c-.015.007-.031.011-.046.019-.07.034-.135.073-.2.112.005-.043.013-.085.02-.128Zm-.168-.318a4.056,4.056,0,0,1,.4-1.046c.026-.047.057-.091.084-.137a3.841,3.841,0,0,0-.295,1.18Zm.19.663a4.036,4.036,0,0,0,.108.6q-.2-.067-.4-.14c0-.093-.009-.185-.007-.277A3.168,3.168,0,0,1,229.108,99.808Zm.185.958.037.011a4.266,4.266,0,0,0,.863,1.443,4.178,4.178,0,0,0,.407.388l-.466.16a2.992,2.992,0,0,1-1.138-1.52,3.717,3.717,0,0,1-.141-.628C229,100.67,229.148,100.719,229.293,100.766Zm2.3-6.643a3.866,3.866,0,0,0,.072.643c-.274.394-.586.766-.892,1.133a6.794,6.794,0,0,1-1.251-2,8.348,8.348,0,0,1,1.286-.249A3.5,3.5,0,0,0,231.588,94.122Zm-.3-.507c.1,0,.206-.01.309-.01-.005.058-.006.116-.009.174-.019-.009-.039-.015-.058-.025C231.451,93.712,231.372,93.664,231.292,93.615Zm4.155,1.805c.067.041.128.09.19.137a3.632,3.632,0,0,1,.367.695,3.187,3.187,0,0,1,.188,1.517,5.869,5.869,0,0,1-2.77-.929,3.522,3.522,0,0,1-1.135-1.272A3.369,3.369,0,0,1,235.447,95.421Zm-3.292-.143a3.309,3.309,0,0,1-.152-.459c.1-.148.192-.3.278-.455a10.129,10.129,0,0,0,2.527.291q.162.132.31.278a3.178,3.178,0,0,0-1.846-.044A7.471,7.471,0,0,0,232.155,95.277Zm10.466,7.053c.029-.027.06-.051.088-.079s.057-.063.085-.094c.09.085.175.175.258.268A2.62,2.62,0,0,1,242.621,102.33Zm.717.447c.086.118.168.24.244.366.013.023.025.047.038.07a9.6,9.6,0,0,0-.826-.5A2.883,2.883,0,0,0,243.338,102.777Zm-.584-1.087a4.577,4.577,0,0,0-.508-.367,5.346,5.346,0,0,0-2.206-.722c-.238-.192-.485-.386-.745-.562a2.922,2.922,0,0,0,.615-.413,3.785,3.785,0,0,0,.914-1.3c.286.233.571.467.85.709a3.867,3.867,0,0,1,1.224,1.477A1.294,1.294,0,0,1,242.754,101.69Zm-.193.258a2.846,2.846,0,0,1-.269.262A7.886,7.886,0,0,1,240.524,101a5.186,5.186,0,0,1,.812.229A4.346,4.346,0,0,1,242.561,101.948Zm-6.361-1.554.047-.061c.182.029.365.055.549.074.207.021.417.03.626.031l.023.226c-.278.033-.556.07-.834.11C236.477,100.646,236.341,100.517,236.2,100.394Zm.028.434-.32.046c.037-.077.078-.153.122-.228C236.1,100.706,236.162,100.768,236.228,100.828Zm.292-.776a1.514,1.514,0,0,1,.367-.233,1.427,1.427,0,0,1,.464-.11q.022.206.041.411A7.091,7.091,0,0,1,236.52,100.053Zm.9.932.061-.007c.033.291.073.579.124.864a10.361,10.361,0,0,0-.708-.79C237.07,101.029,237.244,101.006,237.418,100.985Zm0-2.845c.156,0,.313,0,.469-.007.867-.024,1.733-.064,2.6-.089l.081.068a3.6,3.6,0,0,1-.886,1.291,2.594,2.594,0,0,1-.7.442,3.2,3.2,0,0,0-1.128-.425c-.076-.011-.153-.015-.231-.02C237.572,98.974,237.509,98.552,237.421,98.139Zm.727,1.673a3.27,3.27,0,0,1,.427.174,4,4,0,0,1-.874.132q-.021-.2-.043-.405A2.324,2.324,0,0,1,238.148,99.812Zm.8.379a6.342,6.342,0,0,1,.534.367c-.235-.01-.471-.013-.706-.005-.342.012-.683.039-1.023.075l-.022-.2A4.083,4.083,0,0,0,238.95,100.191Zm1.774-2.472-.125,0a10.771,10.771,0,0,1-1.078-1,4.919,4.919,0,0,1-1.184-2.081,20.189,20.189,0,0,1,3.046.2,14.55,14.55,0,0,1-.316,1.64A11.159,11.159,0,0,1,240.724,97.718Zm-2.444-3.4a2.5,2.5,0,0,1,.07-1.028,1.7,1.7,0,0,1,1.032-1.193,1.464,1.464,0,0,1,1.521.571,2.606,2.606,0,0,1,.506,1.854A20.8,20.8,0,0,0,238.28,94.321Zm1.828,3.4c-.911.048-1.837.1-2.762.1a4.808,4.808,0,0,0-1.156-2.2,2.816,2.816,0,0,0-.359-.311,4.447,4.447,0,0,0-.568-.65h.573c.72,0,1.452-.018,2.185-.02,0,.012,0,.024.006.036A5.952,5.952,0,0,0,240.108,97.724Zm-3.75-1.384a5.58,5.58,0,0,1,.657,1.477c-.164,0-.328-.011-.493-.023A3.468,3.468,0,0,0,236.357,96.341Zm.1,1.866c.007-.033.009-.065.015-.1.209.015.418.023.627.026a10.7,10.7,0,0,1,.218,1.267,1.719,1.719,0,0,0-.692.194,2.009,2.009,0,0,0-.489.393c-.162-.028-.323-.06-.483-.093A4.435,4.435,0,0,0,236.457,98.207Zm-.668,2.233c-.051.082-.1.165-.144.249s-.07.156-.1.234c-.261.035-.523.068-.785.094-.07.007-.14.011-.21.017.04-.032.081-.062.121-.1a6.562,6.562,0,0,0,.761-.761l.067.014C235.6,100.272,235.691,100.357,235.789,100.44Zm-1.815.63a.184.184,0,0,1-.043-.065,3.257,3.257,0,0,0-.965-1.187,2.672,2.672,0,0,0-.717-.355c.33.05.656.116.973.186.622.137,1.238.3,1.859.449A6.088,6.088,0,0,1,233.974,101.07Zm-.137,1.1a1.271,1.271,0,0,1-1.268.892,2.359,2.359,0,0,1-1.272-.358l.17-.059a12.22,12.22,0,0,0,2.343-1.089A1.319,1.319,0,0,1,233.837,102.172Zm-2.878.311a3.864,3.864,0,0,1-1.247-1.592,13.432,13.432,0,0,0,3.715.515A14,14,0,0,1,230.959,102.483Zm2.061.837a1.523,1.523,0,0,0,1.074-.9,1.585,1.585,0,0,0-.012-1.038c.45-.026.9-.072,1.345-.129a2.427,2.427,0,0,0,.355,2.187,5.657,5.657,0,0,0-.77-.011,12.983,12.983,0,0,1-3.568-.082,3.847,3.847,0,0,1-.959-.364l.424-.143A2.626,2.626,0,0,0,233.02,103.32Zm2.66-.762a2.214,2.214,0,0,1,.086-1.348l.756-.1a9.272,9.272,0,0,1,1.264,1.522c.049.169.1.336.168.5a5.4,5.4,0,0,0-.819.778,2.207,2.207,0,0,0-.87-.388A2.1,2.1,0,0,1,235.68,102.558Zm1.487,1.813c.014.017.029.032.042.05a1.9,1.9,0,0,1,.266,1.441,2.369,2.369,0,0,1-1.282,1.637,5.107,5.107,0,0,1,.814-2.906C237.057,104.517,237.113,104.444,237.167,104.37Zm.271-.334a4.972,4.972,0,0,1,.646-.613,4.625,4.625,0,0,0,.241.454c.023.037.05.07.074.106A3.352,3.352,0,0,1,237.438,104.037Zm.882-1.165q-.114-.2-.239-.385a9.782,9.782,0,0,1-.239-1.184c-.017-.118-.033-.239-.048-.359a10.308,10.308,0,0,1,2.126-.039c.17.141.337.282.5.418a10.262,10.262,0,0,0,1.332.971,4.073,4.073,0,0,0-2.473.1A4.931,4.931,0,0,0,238.319,102.872Zm1.289-.253a3.7,3.7,0,0,1,2.117,0c-.314.2-.637.36-.907.493a10.959,10.959,0,0,1-1.978.768l-.048.012a5.736,5.736,0,0,0-.324-.748A4.5,4.5,0,0,1,239.608,102.618Zm-.289,1.451a12.457,12.457,0,0,0,1.883-.794,8.787,8.787,0,0,0,.9-.528,5.268,5.268,0,0,1,.714.339c.379.216.739.464,1.1.714a5.946,5.946,0,0,1,.283.843,8,8,0,0,1-1.786.492,3.762,3.762,0,0,1-3.444-.924c-.009-.01-.016-.022-.025-.032C239.07,104.147,239.2,104.11,239.319,104.07Zm4.577-2.454c-.137-1.165-.144-2.358-.2-3.543a27.68,27.68,0,0,1,3.318.351,5.311,5.311,0,0,1,.213.505,6.489,6.489,0,0,1-1.872,2.743,3.388,3.388,0,0,1-1.348.7C243.964,102.118,243.926,101.868,243.9,101.616Zm-.215-3.863a16.74,16.74,0,0,0-.278-2.4c.225.083.45.173.67.277a6.185,6.185,0,0,1,2.677,2.3c.027.044.05.09.076.135A29.026,29.026,0,0,0,243.681,97.753Zm.013,4.67c-.07.009-.14.017-.21.02a4.911,4.911,0,0,0-.494-.543,1.654,1.654,0,0,0,.3-1.024,2.457,2.457,0,0,0-.768-1.481,16.049,16.049,0,0,0-1.551-1.366q.519-.01,1.039-.006.682.006,1.366.035A34.4,34.4,0,0,0,243.694,102.423ZM241.412,97.7c-.118,0-.236.006-.354.008.106-.317.195-.639.269-.952a14.678,14.678,0,0,0,.372-1.867,10.38,10.38,0,0,1,1.352.337,13.574,13.574,0,0,1,.256,1.7c.024.268.042.538.057.81Q242.388,97.7,241.412,97.7Zm.312-3.124a3.494,3.494,0,0,0-.208-1.487,1.878,1.878,0,0,0-2.48-1.191,2.361,2.361,0,0,0-1.064,2.42c-.957,0-1.915.028-2.863.013l-.23,0a4.985,4.985,0,0,0-2.024-.923c-.058-.011-.116-.018-.175-.028a2.807,2.807,0,0,0-.078-1.7,3.955,3.955,0,0,1,.562-.676,5.655,5.655,0,0,1,6.58-.464,6.717,6.717,0,0,1,2.488,2.471,7.5,7.5,0,0,1,.737,1.86A11.1,11.1,0,0,0,241.724,94.58Zm-8.173-.646a4.365,4.365,0,0,1,.789.384,8.812,8.812,0,0,1-1.92-.237q.091-.194.163-.4A5.3,5.3,0,0,1,233.551,93.933Zm-1.12-.878c-.017.094-.046.184-.07.275-.132-.015-.264-.025-.4-.032a4.217,4.217,0,0,1,.43-1.264A2.33,2.33,0,0,1,232.431,93.055Zm-.168.588c-.043.117-.087.233-.141.346-.073-.024-.147-.047-.219-.075,0-.1.008-.2.017-.3C232.035,93.621,232.149,93.631,232.263,93.643Zm-.352,2.1.085-.041A4.209,4.209,0,0,0,234,97.533a6.786,6.786,0,0,0,2.14.546,4,4,0,0,1-.578,1.393c-.058.087-.12.168-.181.25-.7-.548-1.418-1.065-2.117-1.6a18.628,18.628,0,0,1-2.191-1.889A7.448,7.448,0,0,1,231.91,95.748Zm-.556-.065c.14-.171.277-.344.408-.522.031.1.066.175.1.252Q231.6,95.538,231.354,95.683Zm-.536.737a32.47,32.47,0,0,0,4.091,3.309c-.74-.179-1.475-.375-2.224-.511a7.233,7.233,0,0,0-2.6-.069c-.217-.006-.434-.008-.652-.007a4.951,4.951,0,0,1,1.193-2.565C230.686,96.523,230.751,96.47,230.818,96.42Zm-.707,3.042a6.636,6.636,0,0,1,2.094.319,2.41,2.41,0,0,1,1.129.862,3.421,3.421,0,0,1,.282.439,13.106,13.106,0,0,1-3.092-.311c-.319-.071-.635-.156-.947-.251a3.734,3.734,0,0,1-.149-.685c-.006-.058,0-.114-.007-.171A3.838,3.838,0,0,1,230.111,99.462Zm-.037,3.661a4.7,4.7,0,0,0,1.942.643c1.2.146,2.39-.067,3.591-.028a3.332,3.332,0,0,1,.485.049,2.157,2.157,0,0,0,.784.443c-.023.031-.047.061-.07.093a5.5,5.5,0,0,0-.934,3.255c0,.024,0,.048,0,.072a4.266,4.266,0,0,1-.861.256,18.408,18.408,0,0,1-4.138-.14c-.154-.006-.312-.008-.469,0a7.315,7.315,0,0,1-1.126-.736,5.032,5.032,0,0,1-1.778-2.484c-.032-.107-.06-.216-.085-.325.085-.049.17-.1.249-.136A17.806,17.806,0,0,1,230.074,103.123Zm5.87,5.3-.024.009a6.707,6.707,0,0,1-3.431.082,8.106,8.106,0,0,1-1.384-.429l.393.035c.709.06,1.414.161,2.125.186a5.857,5.857,0,0,0,2.271-.323C235.905,108.135,235.922,108.282,235.943,108.428Zm-4.622.087a7.415,7.415,0,0,0,4.673.212,7.66,7.66,0,0,0,.223.894,23.979,23.979,0,0,1-3.1-.1,18.18,18.18,0,0,1-3.923-.824l-.03-.011a1.08,1.08,0,0,1,.338-.361,1.673,1.673,0,0,1,.817-.249A8.5,8.5,0,0,0,231.322,108.515Zm4.885-.659a3.383,3.383,0,0,0,.732-.477,2.508,2.508,0,0,0,.768-2.679,1.863,1.863,0,0,0-.171-.352,4.137,4.137,0,0,0,1.046-.084,2.915,2.915,0,0,1-.094,2.145,4.2,4.2,0,0,1-2.234,1.9Q236.223,108.085,236.207,107.857Zm1.508-.035a3.232,3.232,0,0,0,1.311-2.971c-.008-.063-.022-.126-.033-.189a3.574,3.574,0,0,0,2.016.842,7.077,7.077,0,0,0,3.261-.547,6.65,6.65,0,0,1,.122.9,4.348,4.348,0,0,0-1.312,2.438,4.572,4.572,0,0,0-.053.582c-.66.054-1.315.142-1.946.233-1.313.19-2.621.387-3.947.468-.194.012-.388.017-.582.025a7.554,7.554,0,0,1-.251-.983A5.226,5.226,0,0,0,237.715,107.822Zm5.63,1.034c0-.079,0-.158.011-.237a4.025,4.025,0,0,1,1.053-2.322,7.221,7.221,0,0,1-.45,2.534C243.754,108.835,243.549,108.843,243.345,108.856Zm.483.3a7.374,7.374,0,0,1-.389.773,3.953,3.953,0,0,1-.1-.75Q243.585,109.159,243.828,109.152Zm.521-5.434a9.211,9.211,0,0,1-.274-1.015c1.519-.363,2.684-1.926,3.3-3.318a4.068,4.068,0,0,1,.062,1.864,4.6,4.6,0,0,1-2.349,2.965C244.835,104.055,244.591,103.887,244.348,103.717Zm3.445-3.83a4.975,4.975,0,0,0-.236-.984c.043-.117.09-.234.129-.353l.081.016a3.952,3.952,0,0,0,.425.873,4.386,4.386,0,0,0,2.023,1.985,9.557,9.557,0,0,1-2.24,2.157c-.622.428-1.3.764-1.958,1.134a6.143,6.143,0,0,1-.628-.319,5.656,5.656,0,0,0,1.608-1.44A4.241,4.241,0,0,0,247.793,99.887Zm2.737,1.629a2.383,2.383,0,0,0,.261.041,7.143,7.143,0,0,1,.622,1.371,3.643,3.643,0,0,1-.364.56,4.41,4.41,0,0,1-2.687,1.552,3.96,3.96,0,0,1-1.961-.175,19.027,19.027,0,0,0,1.849-1.088A9.957,9.957,0,0,0,250.53,101.516Zm-.283-.41a3.314,3.314,0,0,1-1.411-1.26,5.788,5.788,0,0,1-.715-1.205c.151.034.3.071.457.11a15.18,15.18,0,0,1,1.908,2.29l-.08.117C250.352,101.143,250.3,101.126,250.247,101.106Zm.423-.351a14.322,14.322,0,0,0-1.5-1.842,11.709,11.709,0,0,1,2.044.793A8.656,8.656,0,0,1,250.67,100.755Zm-1.929-2.292c-.231-.233-.466-.462-.7-.687a.909.909,0,0,1,.932-.6,2.283,2.283,0,0,1,1.4.566,4.064,4.064,0,0,1,1.074,1.4c-.032.09-.067.179-.1.268A12.538,12.538,0,0,0,248.741,98.463Zm-.6-.142-.125-.028c-.006-.035-.008-.07-.012-.106Zm-3.379,6.066c-.044.023-.089.043-.134.064-.032-.07-.06-.141-.089-.212Zm.064,1.092c-.049.038-.1.079-.144.118-.016-.152-.035-.3-.06-.456C244.691,105.256,244.759,105.368,244.831,105.479Zm-.059-.743c.1-.049.2-.1.3-.155.189.116.382.228.581.327-.18.127-.375.253-.565.386l-.016-.023C244.962,105.1,244.864,104.918,244.772,104.736Zm1.256.34a4.437,4.437,0,0,0,2.664.222,4.677,4.677,0,0,0,2.582-1.585,4.123,4.123,0,0,0,.261-.368c.029.113.057.227.081.343a2.993,2.993,0,0,1-1.058,3.2,3.58,3.58,0,0,1-2.883.463,4.479,4.479,0,0,1-2.409-1.795C245.513,105.384,245.768,105.226,246.028,105.076Zm5.574-2.555c-.014-.038-.027-.077-.042-.115a8.35,8.35,0,0,0-.4-.85,1.758,1.758,0,0,0,.707-.218A4.007,4.007,0,0,1,251.6,102.521Zm-4.773-12.052a5.6,5.6,0,0,1,2.859,1.4,6.59,6.59,0,0,1,2.092,5.984,7.625,7.625,0,0,1-.2.863,4.569,4.569,0,0,0-.459-.67A2.752,2.752,0,0,0,248.6,96.9a1.181,1.181,0,0,0-.6.328,10.369,10.369,0,0,0-1.238-6.765Zm-.468-.047a10.117,10.117,0,0,1,1.451,5.491,9.748,9.748,0,0,1-.161,1.492l-.122-.117c-.828-.785-1.664-1.564-2.421-2.42-.72-.814-1.554-2.041-1.211-3.188A2.221,2.221,0,0,1,246.36,90.422Zm-13.824-2.081a9.38,9.38,0,0,1,2.694-1.52,10.005,10.005,0,0,1,6.084-.278,8.582,8.582,0,0,1,4.844,3.55,3.5,3.5,0,0,0-1.4.252,2.011,2.011,0,0,0-1.1,1.071,2.379,2.379,0,0,0-.032,1.553,6.979,6.979,0,0,0,1.907,2.82c.661.682,1.357,1.327,2.044,1.982q-.047.207-.1.413l-.243-.043a6.048,6.048,0,0,0-.85-1.227,7.138,7.138,0,0,0-2.961-1.892c-.03-.011-.061-.019-.092-.03a8.715,8.715,0,0,0-.478-1.452,6.955,6.955,0,0,0-5.281-4.082,5.423,5.423,0,0,0-5.12,1.9,2.245,2.245,0,0,0-.683-.759,1.613,1.613,0,0,0-.989-.291A7.6,7.6,0,0,1,232.536,88.341Zm-2.07,2.579c.04-.1.087-.2.134-.293a1.23,1.23,0,0,1,.179-.019,1.607,1.607,0,0,1,1.327.784,2.211,2.211,0,0,1,.144.258,4.289,4.289,0,0,0-.257.478,4.659,4.659,0,0,0-.35,1.162,7.244,7.244,0,0,0-.749.03,1.993,1.993,0,0,1-.44-.562A2.2,2.2,0,0,1,230.466,90.92Zm-.992.579a1.822,1.822,0,0,1,.708-.726,2.681,2.681,0,0,0-.191,1.63,2.11,2.11,0,0,0,.507.966,8.56,8.56,0,0,0-1.084.234c-.015-.046-.032-.09-.045-.136A2.593,2.593,0,0,1,229.474,91.5Zm-3.42,6.183a2.91,2.91,0,0,1,.407-1.749,4.713,4.713,0,0,1,2.756-1.938,6.306,6.306,0,0,0,.335.71,8.146,8.146,0,0,0,1.017,1.435c-.054.066-.109.131-.161.2-.089.072-.176.145-.261.221a4.926,4.926,0,0,0-1.553,2.591l-.259,0c-.5.005-1.008,0-1.512,0A2.378,2.378,0,0,1,226.054,97.681Zm1.157,1.785c.442,0,.883,0,1.325,0-.015.115-.027.23-.034.346a3.324,3.324,0,0,0-.264.218A5.667,5.667,0,0,1,227.212,99.466Zm.287,2.321a3.485,3.485,0,0,1,.81-1.375c.07.029.14.057.21.084a3.639,3.639,0,0,0,.679,1.825,3.14,3.14,0,0,0,.559.576c-.222.077-.443.154-.661.234a13.113,13.113,0,0,0-1.741.746A4.642,4.642,0,0,1,227.5,101.787Zm-.179,6.14a2.919,2.919,0,0,1-1.392-1.1c-.524-1,.365-1.89,1.21-2.438a5.729,5.729,0,0,0,2.744,3.441,1.6,1.6,0,0,0-.664.309,1.342,1.342,0,0,0-.343.436A14.739,14.739,0,0,1,227.319,107.928Zm5.006,5.259a7.285,7.285,0,0,1-2.731-2.2,2.8,2.8,0,0,1-.547-2.005c.272.092.546.18.822.258a19.55,19.55,0,0,0,3.887.657,24.756,24.756,0,0,0,2.566.041,8.714,8.714,0,0,0,.508,1.152,8.11,8.11,0,0,0,2.072,2.555A8.465,8.465,0,0,1,232.325,113.187Zm5.16-1.616a8.491,8.491,0,0,1-.827-1.649c.373-.017.746-.039,1.118-.07,1.291-.107,2.564-.323,3.846-.5.465-.063.933-.12,1.4-.159a4.335,4.335,0,0,0,.182,1.1,8.714,8.714,0,0,1-3.955,3.212A7.334,7.334,0,0,1,237.485,111.571Zm6.625,2.8a7.266,7.266,0,0,1-3.915-.314,4.676,4.676,0,0,1-.633-.341c.041-.018.083-.033.124-.052a9.01,9.01,0,0,0,3.652-3.008,4,4,0,0,0,.43.789,4.447,4.447,0,0,0,2.659,1.771,3.625,3.625,0,0,0,1.127.062A11.779,11.779,0,0,1,244.11,114.373Zm4.754-2.089a1.924,1.924,0,0,1-1.327.685,3.832,3.832,0,0,1-3.044-1.154,3.871,3.871,0,0,1-.937-1.484,7.839,7.839,0,0,0,.616-1.184,10.089,10.089,0,0,1,1.185.059,5.082,5.082,0,0,1,3.325,1.494A1.289,1.289,0,0,1,248.864,112.284Zm4.828-10.449a4.564,4.564,0,0,1,.672,1.787,4.884,4.884,0,0,1,.047.761q0,.17-.018.34c-.01.115-.02.2-.031.266a6.281,6.281,0,0,1-.389,1.32,13.186,13.186,0,0,1-3.883,5.334c-.276.229-.566.443-.86.648.492-.924-.266-1.934-1.054-2.451a6.979,6.979,0,0,0-3.881-1.013,7.393,7.393,0,0,0,.42-2.837c.094-.086.193-.167.3-.246a5.214,5.214,0,0,0,1.665,1.535,3.956,3.956,0,0,0,2.886.389,3.191,3.191,0,0,0,2.175-1.684,4.242,4.242,0,0,0,.016-3.028,4.281,4.281,0,0,0,.44-1.864,5.546,5.546,0,0,0,.415-.477A5.4,5.4,0,0,1,253.692,101.834Z" transform="translate(-225.466 -85.884)"/><path class="o" d="M238.973,103.357c-.016.029-.03.058-.047.087,0-.035,0-.071-.005-.106Z" transform="translate(-232.471 -94.97)"/><path class="o" d="M263.6,121.2c-.023-.036-.044-.073-.068-.109l.045-.005C263.586,121.119,263.593,121.157,263.6,121.2Z" transform="translate(-245.283 -104.207)"/></g></g></g></g></svg>