<svg xmlns="http://www.w3.org/2000/svg" xmlns:xlink="http://www.w3.org/1999/xlink" width="52.677" height="52.677" viewBox="0 0 52.677 52.677"><defs><style>.a{fill:url(#a);}.b{fill:url(#b);}.c{fill:url(#c);}.d{fill:url(#d);}.e{fill:#fff;}</style><linearGradient id="a" x1="0.332" y1="0.141" x2="0.585" y2="0.682" gradientUnits="objectBoundingBox"><stop offset="0" stop-color="#00c3ff"/><stop offset="1" stop-color="#00b0ed"/></linearGradient><linearGradient id="b" x1="0.738" y1="0.628" x2="-0.899" y2="-0.25" gradientUnits="objectBoundingBox"><stop offset="0" stop-color="#00b0ed" stop-opacity="0"/><stop offset="1" stop-color="#00a2ce"/></linearGradient><linearGradient id="c" x1="0.5" y1="0.27" x2="0.5" y2="0.926" xlink:href="#b"/><linearGradient id="d" x1="0.946" y1="0.922" x2="0.342" y2="0.273" xlink:href="#b"/></defs><g transform="translate(0 0.001)"><path class="a" d="M43.255,51.775a159.108,159.108,0,0,1-33.833,0A9.592,9.592,0,0,1,.9,43.254,159.1,159.1,0,0,1,.9,9.422,9.592,9.592,0,0,1,9.422.9,159.1,159.1,0,0,1,43.255.9a9.592,9.592,0,0,1,8.521,8.52,159.1,159.1,0,0,1,0,33.833,9.591,9.591,0,0,1-8.52,8.521Zm0,0"/><path class="b" d="M74.778,37.2a8.511,8.511,0,0,0-7.56-7.561,141.24,141.24,0,0,0-30.022,0A8.512,8.512,0,0,0,29.634,37.2a141.236,141.236,0,0,0,0,30.022,8.512,8.512,0,0,0,7.561,7.561,141.183,141.183,0,0,0,30.022,0,8.511,8.511,0,0,0,7.561-7.561,141.182,141.182,0,0,0,0-30.022Zm0,0" transform="translate(-25.867 -25.868)"/><path class="c" d="M7.672,409.8q.054.546.113,1.092a9.592,9.592,0,0,0,8.521,8.52,159.107,159.107,0,0,0,33.833,0,9.591,9.591,0,0,0,8.52-8.52q.058-.546.113-1.092Zm0,0" transform="translate(-6.883 -367.643)"/><path class="d" d="M139.974,138.148,129.04,127.214a13.048,13.048,0,0,1-3.119,1.3,8.922,8.922,0,0,1-1.1.226,6.79,6.79,0,0,0-11.651,4.742c0,.135,0,.269.012.4a6.548,6.548,0,0,0,.123.955,18.6,18.6,0,0,1-11.506-4.6h0l-2.288-2.289s-2.685,4.686,1.262,8.241a7.535,7.535,0,0,0,.572.572l.05.055A6.652,6.652,0,0,1,98.419,136a6.588,6.588,0,0,0,2.2,4.972l1.927,1.943a3.749,3.749,0,0,1-1.687-.161,6.489,6.489,0,0,0,1.944,3.054l2.7,2.713a13.973,13.973,0,0,1-8.185,1.822l16.374,16a159.285,159.285,0,0,0,16.869-.9,9.592,9.592,0,0,0,8.521-8.52,159.352,159.352,0,0,0,.89-18.768Zm0,0" transform="translate(-87.308 -113.661)"/><path class="e" d="M129.969,129.851a12.283,12.283,0,0,1-3.5.973l-.014-.082a6.517,6.517,0,0,0,2.584-3.528,13.048,13.048,0,0,1-3.119,1.3,9,9,0,0,1-1.1.226,6.79,6.79,0,0,0-11.651,4.742c0,.135,0,.269.012.4a6.548,6.548,0,0,0,.123.955,18.978,18.978,0,0,1-13.8-6.89s-3.023,5.274,2.059,8.877a7.08,7.08,0,0,1-3.152-.836s-.322,5.082,5.532,6.69a6.424,6.424,0,0,1-3.088.065,6.549,6.549,0,0,0,6.176,4.7,13.529,13.529,0,0,1-9.718,2.893,19.188,19.188,0,0,0,29.432-16.221q0-.2,0-.4c0-.078,0-.156,0-.236,0-.055,0-.11,0-.165a12.006,12.006,0,0,0,3.223-3.47Zm0,0" transform="translate(-87.304 -113.66)"/></g></svg>